<svg width="339" height="104" fill="none" xmlns="http://www.w3.org/2000/svg"><path d="M30.812 96.895H109.4c0 2.703 2.254 5.105 4.959 5.105h60.556c2.704 0 4.958-2.252 4.958-4.955v-.15s30.354 1.051 49.437-3.754c10.819-2.853 14.576-4.204 25.695-8.558 41.172-16.367 66.567-22.373 66.567-22.373s-16.83-2.552-11.571-14.865C312.706 40.74 329.986 2 329.986 2l-16.078 1.201c-6.311.45-12.021 3.454-16.829 7.658C247.342 54.102 252 56.054 224.952 56.054c-34.41 0-113.298.3-151.465.3-16.529 0-47.633-1.501-57.851 13.514L7.37 73.02C.008 75.724-5.4 95.393 30.812 96.895z" stroke="#074F79" stroke-width="3" stroke-miterlimit="10" stroke-linejoin="round"/><path d="M13.232 70.768h17.43c.902 0 1.653-.9 1.653-1.952v-2.552c0-.45-.3-.901-.751-.901h-11.42m126.822 20.721l9.166-1.651v-7.958l-9.166-1.502" stroke="#074F79" stroke-width="3" stroke-miterlimit="10" stroke-linejoin="round"/><path d="M122.924 89.988h16.98c5.109 0 9.166-4.054 9.166-9.159s-4.057-9.16-9.166-9.16h-16.98c-3.306 0-5.86 2.704-5.86 5.857v6.606c-.151 3.153 2.554 5.856 5.86 5.856z" stroke="#074F79" stroke-width="3" stroke-miterlimit="10" stroke-linejoin="round"/><path d="M126.831 71.52H137.5v18.318h-10.669V71.52zm82.494 8.858l-62.509-24.174" stroke="#074F79" stroke-width="3" stroke-miterlimit="10" stroke-linejoin="round"/><path d="M260.866 75.424c-1.202-.3-2.404-.15-3.456.15-7.213 2.853-33.058 15.015-61.007 14.864-3.306 0-5.71 3.304-5.56 6.457 0 0 23.141.3 44.628-5.556 14.726-3.903 26.447-9.159 33.208-12.012.902-.45.902-1.802-.15-2.102l-7.663-1.801z" stroke="#074F79" stroke-width="3" stroke-miterlimit="10"/><path d="M178.221 93.141l-1.803-1.351c-1.804-1.352-3.607-1.952-5.861-1.952h-47.333" stroke="#074F79" stroke-width="3" stroke-miterlimit="10" stroke-linecap="round" stroke-linejoin="round"/><path d="M189.941 73.021H177.62c-.601 0-1.202-.15-1.804-.3l-32.607-12.613h13.524m13.223 23.424c-29.752-8.259-58.903-14.114-91.21-18.619-6.762-.9-5.109-9.31.601-8.558h-.15c35.612 5.555 65.515 13.363 92.412 22.672M322.323 62.21l-12.922-1.501-46.131-1.352c-12.622-.45-14.125 5.856-.751 6.307 5.409.15 26.296 1.05 44.477.6 10.068-.3 13.374-1.351 13.374-1.351l1.953-2.703z" stroke="#074F79" stroke-width="3" stroke-miterlimit="10" stroke-linejoin="round"/><path d="M225.404 80.828c-10.969-2.102-43.727-4.354-53.344-2.102-4.508 1.051-5.109 5.556 2.555 6.156 7.814.601 33.809-.6 50.789-4.054z" stroke="#074F79" stroke-width="3" stroke-miterlimit="10" stroke-linejoin="round"/><path clip-rule="evenodd" d="M337.049 64.312c-6.311-2.703-27.949-4.204-34.11-2.853-2.855.6-3.456 3.754 1.503 4.355 4.808.6 21.487.45 32.607-1.502z" stroke="#074F79" stroke-width="3" stroke-miterlimit="10" stroke-linejoin="round"/><path d="M61.016 75.574h-4.508c-1.052 0-1.803.75-1.803 1.802v9.159c0 1.05.75 1.802 1.803 1.802h4.508c1.052 0 1.803-.751 1.803-1.802v-9.16c0-1.05-.752-1.801-1.803-1.801zM326.981 8.757l-18.482 41.291h-17.731c-1.503 0-2.404-1.651-1.653-2.853l21.187-35.135c1.052-1.652 2.705-2.703 4.658-2.703l12.021-.6z" stroke="#074F79" stroke-width="3" stroke-miterlimit="10" stroke-linejoin="round"/><path d="M294.975 38.636h2.855m7.363-17.566h2.855" stroke="#074F79" stroke-width="3" stroke-miterlimit="10" stroke-linecap="round" stroke-linejoin="round"/></svg>