<svg width="756" height="317" fill="none" xmlns="http://www.w3.org/2000/svg"><path d="M390.401 108.686h161.631" stroke="#074F79" stroke-width="4" stroke-miterlimit="10" stroke-linecap="round" stroke-linejoin="round"/><path d="M609.62 71.39l-32.919 38.576c-1.522 1.761-2.403 3.842-2.723 6.163l-1.122 9.044H218.117c-.72 0-1.281-.56-1.281-1.281v-11.765c0-.08 0-.24-.08-.24L201.858 72.83a5.187 5.187 0 014.886-7.043h12.495c.721 0 1.281-.56 1.281-1.28V34.094c0-.72.561-1.28 1.282-1.28h10.973c.721 0 1.281-.561 1.281-1.281V25.53c0-.72.561-1.28 1.282-1.28h6.007c.721 0 1.281.56 1.281 1.28v6.003c0 .72.561 1.28 1.282 1.28h40.848c.721 0 1.282.56 1.282 1.28v30.414c0 .72.56 1.28 1.281 1.28h8.971c.64 0 1.201.48 1.201 1.12.561 6.003 5.687 10.725 11.854 10.725H533.29c6.167 0 11.293-4.722 11.854-10.724.08-.64.56-1.12 1.201-1.12h60.551c2.724-.08 4.406 3.2 2.724 5.602z" stroke="#074F79" stroke-width="4" stroke-miterlimit="10" stroke-linejoin="round"/><path d="M594.013 75.392a2.733 2.733 0 01-2.735 2.732 2.733 2.733 0 01-2.735-2.732 2.733 2.733 0 012.735-2.732 2.733 2.733 0 012.735 2.732z" stroke="#074F79" stroke-width="3.5"/><path d="M403.616 58.985h-35.482c-.961 0-1.682.8-1.682 1.68v12.326c0 .96.801 1.68 1.682 1.68h35.482c.962 0 1.682-.8 1.682-1.68V60.665c.08-.88-.72-1.68-1.682-1.68zm-42.129-18.328h-35.482c-.961 0-1.682.8-1.682 1.68v12.326c0 .96.801 1.68 1.682 1.68h35.482c.961 0 1.682-.8 1.682-1.68V42.338c0-.96-.721-1.681-1.682-1.681zm42.129 0h-35.482c-.961 0-1.682.8-1.682 1.68v12.326c0 .96.801 1.68 1.682 1.68h35.482c.962 0 1.682-.8 1.682-1.68V42.338c.08-.96-.72-1.681-1.682-1.681zm-42.129 18.328h-35.482c-.961 0-1.682.8-1.682 1.68v12.326c0 .96.801 1.68 1.682 1.68h35.482c.961 0 1.682-.8 1.682-1.68V60.665c0-.88-.721-1.68-1.682-1.68zm158.507-18.328h-17.221c-.961 0-1.681.8-1.681 1.68v30.654c0 .96.8 1.68 1.681 1.68h17.221c.961 0 1.682-.8 1.682-1.68V42.337c0-.96-.721-1.68-1.682-1.68zm-24.509 0h-17.22c-.962 0-1.682.8-1.682 1.68v30.654c0 .96.801 1.68 1.682 1.68h17.22c.961 0 1.682-.8 1.682-1.68V42.337c0-.96-.721-1.68-1.682-1.68zm-24.749 0h-17.221c-.961 0-1.682.8-1.682 1.68v30.654c0 .96.801 1.68 1.682 1.68h17.221c.961 0 1.682-.8 1.682-1.68V42.337c.08-.96-.721-1.68-1.682-1.68zm-24.75 0h-35.481c-.962 0-1.682.8-1.682 1.68v12.326c0 .96.8 1.68 1.682 1.68h35.481c.962 0 1.682-.8 1.682-1.68V42.338c0-.96-.801-1.681-1.682-1.681zm0 18.328h-35.481c-.962 0-1.682.8-1.682 1.68v12.326c0 .96.8 1.68 1.682 1.68h35.481c.962 0 1.682-.8 1.682-1.68V60.665c0-.88-.801-1.68-1.682-1.68z" fill="#074F79"/><path d="M280.111 38.496h-6.488v6.483h6.488v-6.483zm-10.092 0h-6.488v6.483h6.488v-6.483zm-10.012.16h-6.487v6.483h6.487v-6.483zm-10.012 0h-6.488v6.483h6.488v-6.483z" stroke="#074F79" stroke-width="4" stroke-miterlimit="10" stroke-linejoin="round"/><path d="M214.834 65.707h56.867m328.067 82.596l-4.245-2.561a14.142 14.142 0 00-14.337-.16l-.881.48c-4.565 2.561-10.092 2.481-14.577-.32-4.325-2.642-9.691-2.882-14.177-.481l-2.082 1.121c-4.486 2.401-9.852 2.161-14.177-.48l-.16-.08a14 14 0 00-14.257-.4m233.018 23.683l-4.245-2.561a14.147 14.147 0 00-14.337-.16l-.881.48c-4.565 2.561-10.092 2.481-14.577-.32-4.325-2.641-9.691-2.881-14.177-.48l-2.082 1.12c-4.486 2.401-9.852 2.161-14.177-.48l-.16-.08a14.005 14.005 0 00-14.257-.4M80.893 126.105l-4.245-2.561a14.147 14.147 0 00-14.337-.16l-.88.48c-4.566 2.561-10.093 2.481-14.578-.32-4.325-2.641-9.691-2.881-14.177-.48l-2.082 1.12c-4.486 2.401-9.852 2.161-14.177-.48l-.16-.08a14.004 14.004 0 00-14.257-.4m648.782 102.283l-2.463-1.691c-2.557-1.743-5.717-1.796-8.32-.105l-.511.317c-2.65 1.691-5.857 1.638-8.46-.212-2.509-1.743-5.624-1.902-8.226-.317l-1.209.74c-2.603 1.585-5.717 1.427-8.227-.317l-.093-.053c-2.51-1.796-5.67-1.902-8.273-.264M326.159 153.36l-4.245-2.561a14.147 14.147 0 00-14.337-.16l-.881.48c-4.565 2.561-10.092 2.481-14.577-.32-4.325-2.641-9.691-2.881-14.177-.48l-2.082 1.12c-4.485 2.401-9.852 2.161-14.177-.48l-.16-.08a14.005 14.005 0 00-14.257-.4m219.627 163.626l-4.245-2.561a14.147 14.147 0 00-14.337-.16l-.881.48c-4.565 2.561-10.092 2.481-14.577-.32-4.325-2.641-9.691-2.881-14.177-.48l-2.082 1.12c-4.486 2.401-9.852 2.161-14.177-.48l-.16-.08a14.005 14.005 0 00-14.257-.4m56.882-122.946l-4.245-2.561a14.145 14.145 0 00-14.336-.16l-.882.48c-4.565 2.561-10.091 2.481-14.577-.32-4.325-2.641-9.691-2.881-14.176-.48l-2.083 1.12c-4.485 2.402-9.852 2.161-14.177-.48l-.16-.08a14.005 14.005 0 00-14.257-.4m140.904 14.708l-4.245-2.561a14.147 14.147 0 00-14.337-.16l-.881.48c-4.565 2.561-10.092 2.481-14.577-.32-4.325-2.641-9.691-2.881-14.177-.48l-2.082 1.12c-4.486 2.401-9.852 2.161-14.177-.48l-.16-.08a14.005 14.005 0 00-14.257-.4m204.782 40.507l-2.463-1.268c-2.557-1.308-5.717-1.347-8.32-.079l-.511.238c-2.65 1.268-5.857 1.228-8.46-.159-2.509-1.308-5.624-1.426-8.226-.238l-1.209.555c-2.603 1.189-5.717 1.07-8.227-.238l-.093-.039c-2.51-1.348-5.67-1.427-8.273-.198m-80.382-91.123a14.147 14.147 0 00-14.337-.16l-.881.48c-4.565 2.561-10.092 2.481-14.577-.32-4.325-2.641-9.691-2.881-14.177-.48l-2.082 1.12m112.132-20.729c2.243-.08 4.486-.72 6.488-1.841l.881-.48c4.565-2.561 10.092-2.481 14.577.32 4.325 2.641 9.692 2.881 14.177.48l2.082-1.12M253.52 2v30.413" stroke="#074F79" stroke-width="4" stroke-miterlimit="10" stroke-linecap="round" stroke-linejoin="round"/><path d="M668.81 123.252l-39.006-.16c-2.643 0-5.286-.56-7.849-1.441-3.684-1.28-7.769-.96-11.293.881l-2.083 1.12m-400.299.763a14.147 14.147 0 00-14.337-.16l-.881.481c-4.565 2.561-10.092 2.481-14.577-.321-4.325-2.641-9.692-2.881-14.177-.48l-2.082 1.121c-4.486 2.401-9.852 2.161-14.177-.48l-.16-.081a14.291 14.291 0 00-11.934-1.44c-2.243.72-4.566.96-6.888.96H99.832m87.383 17.768l-.881.48c-4.565 2.561-10.092 2.481-14.577-.32-4.325-2.641-9.692-2.881-14.177-.48-1.361.72-2.883 1.121-4.405 1.121h-26.912" stroke="#074F79" stroke-width="4" stroke-miterlimit="10" stroke-linecap="round" stroke-linejoin="round"/></svg>