<svg width="339" height="104" viewBox="0 0 339 104" fill="none" xmlns="http://www.w3.org/2000/svg">
<path d="M30.8124 96.8949H109.4C109.4 99.5976 111.654 102 114.359 102H174.915C177.619 102 179.873 99.7477 179.873 97.045V96.8949C179.873 96.8949 210.227 97.946 229.31 93.1411C240.129 90.2883 243.886 88.9369 255.005 84.5826C296.177 68.2162 321.572 62.2102 321.572 62.2102C321.572 62.2102 304.742 59.6577 310.001 47.3453C312.706 40.7387 329.986 2 329.986 2L313.908 3.20118C307.597 3.65163 301.887 6.65465 297.079 10.8589C247.342 54.1021 252 56.0541 224.952 56.0541C190.542 56.0541 111.654 56.3544 73.4871 56.3544C56.9582 56.3544 25.8537 54.8529 15.6358 69.8679L7.37137 73.021C0.0084747 75.7237 -5.40104 95.3934 30.8124 96.8949Z" stroke="#074F79" stroke-width="3" stroke-miterlimit="10" stroke-linejoin="round"/>
<path d="M13.2315 70.7681H30.6621C31.5637 70.7681 32.3149 69.8673 32.3149 68.8162V66.2637C32.3149 65.8132 32.0144 65.3628 31.5636 65.3628H20.1436" stroke="#074F79" stroke-width="3" stroke-miterlimit="10" stroke-linejoin="round"/>
<path d="M146.966 86.0843L156.132 84.4326V76.4746L146.966 74.9731" stroke="#074F79" stroke-width="3" stroke-miterlimit="10" stroke-linejoin="round"/>
<path d="M122.924 89.9882H139.904C145.013 89.9882 149.07 85.9341 149.07 80.8291C149.07 75.724 145.013 71.6699 139.904 71.6699H122.924C119.618 71.6699 117.064 74.3726 117.064 77.5257V84.1323C116.913 87.2855 119.618 89.9882 122.924 89.9882Z" stroke="#074F79" stroke-width="3" stroke-miterlimit="10" stroke-linejoin="round"/>
<path d="M126.831 71.52H137.5V89.8384H126.831V71.52Z" stroke="#074F79" stroke-width="3" stroke-miterlimit="10" stroke-linejoin="round"/>
<path d="M209.325 80.3783L146.816 56.2041" stroke="#074F79" stroke-width="3" stroke-miterlimit="10" stroke-linejoin="round"/>
<path d="M260.866 75.4235C259.664 75.1232 258.462 75.2733 257.41 75.5736C250.197 78.4265 224.352 90.5886 196.403 90.4384C193.097 90.4384 190.693 93.7417 190.843 96.8949C190.843 96.8949 213.984 97.1952 235.471 91.3393C250.197 87.4355 261.918 82.1802 268.679 79.3274C269.581 78.8769 269.581 77.5255 268.529 77.2252L260.866 75.4235Z" stroke="#074F79" stroke-width="3" stroke-miterlimit="10"/>
<path d="M178.221 93.1411L176.418 91.7898C174.614 90.4385 172.811 89.8379 170.557 89.8379H123.224" stroke="#074F79" stroke-width="3" stroke-miterlimit="10" stroke-linecap="round" stroke-linejoin="round"/>
<path d="M189.941 73.0214H177.62C177.019 73.0214 176.418 72.8712 175.816 72.7211L143.209 60.1084H156.733" stroke="#074F79" stroke-width="3" stroke-miterlimit="10" stroke-linejoin="round"/>
<path d="M169.956 83.5316C140.204 75.2734 111.053 69.4175 78.7463 64.913C71.9844 64.0121 73.6374 55.6037 79.3474 56.3545H79.1971C114.809 61.91 144.712 69.7178 171.609 79.0271" stroke="#074F79" stroke-width="3" stroke-miterlimit="10" stroke-linejoin="round"/>
<path d="M322.323 62.2103L309.401 60.7088L263.27 59.3575C250.648 58.907 249.145 65.2133 262.519 65.6637C267.928 65.8139 288.815 66.7148 306.996 66.2643C317.064 65.964 320.37 64.913 320.37 64.913L322.323 62.2103Z" stroke="#074F79" stroke-width="3" stroke-miterlimit="10" stroke-linejoin="round"/>
<path d="M225.404 80.8284C214.435 78.7263 181.677 76.474 172.06 78.7263C167.552 79.7773 166.951 84.2819 174.615 84.8825C182.429 85.4831 208.424 84.2819 225.404 80.8284Z" stroke="#074F79" stroke-width="3" stroke-miterlimit="10" stroke-linejoin="round"/>
<path fill-rule="evenodd" clip-rule="evenodd" d="M337.049 64.3121C330.738 61.6094 309.1 60.1079 302.939 61.4592C300.084 62.0598 299.483 65.213 304.442 65.8136C309.25 66.4142 325.929 66.264 337.049 64.3121Z" stroke="#074F79" stroke-width="3" stroke-miterlimit="10" stroke-linejoin="round"/>
<path d="M61.0156 75.5737H56.5077C55.4558 75.5737 54.7045 76.3245 54.7045 77.3755V86.5347C54.7045 87.5857 55.4558 88.3365 56.5077 88.3365H61.0156C62.0675 88.3365 62.8188 87.5857 62.8188 86.5347V77.3755C62.8188 76.3245 62.0675 75.5737 61.0156 75.5737Z" stroke="#074F79" stroke-width="3" stroke-miterlimit="10" stroke-linejoin="round"/>
<path d="M326.981 8.75684L308.499 50.0481H290.768C289.265 50.0481 288.364 48.3965 289.115 47.1952L310.302 12.0601C311.354 10.4085 313.007 9.35743 314.96 9.35743L326.981 8.75684Z" stroke="#074F79" stroke-width="3" stroke-miterlimit="10" stroke-linejoin="round"/>
<path d="M294.975 38.6362H297.83" stroke="#074F79" stroke-width="3" stroke-miterlimit="10" stroke-linecap="round" stroke-linejoin="round"/>
<path d="M305.193 21.0693H308.048" stroke="#074F79" stroke-width="3" stroke-miterlimit="10" stroke-linecap="round" stroke-linejoin="round"/>
</svg>
