<svg width="17" height="16" viewBox="0 0 17 16" fill="none" xmlns="http://www.w3.org/2000/svg">
<path fill-rule="evenodd" clip-rule="evenodd" d="M8.47738 15.3334C4.42729 15.3334 1.14404 12.0502 1.14404 8.00008C1.14404 3.94999 4.42729 0.666748 8.47738 0.666748C12.5275 0.666748 15.8107 3.94999 15.8107 8.00008C15.8107 12.0502 12.5275 15.3334 8.47738 15.3334ZM13.4104 11.4165C14.0831 10.447 14.4774 9.26956 14.4774 8.00008C14.4774 4.68637 11.7911 2.00008 8.47738 2.00008C5.16367 2.00008 2.47738 4.68637 2.47738 8.00008C2.47738 9.26956 2.87163 10.447 3.54438 11.4165C4.29468 10.4255 6.05778 10.0001 8.47737 10.0001C10.897 10.0001 12.6601 10.4255 13.4104 11.4165ZM12.4538 12.4933C12.2587 11.7916 10.857 11.3334 8.47737 11.3334C6.09779 11.3334 4.69604 11.7916 4.50092 12.4933C5.55957 13.4309 6.952 14.0001 8.47738 14.0001C10.0027 14.0001 11.3952 13.4309 12.4538 12.4933ZM8.47738 4.00008C6.86344 4.00008 5.81071 5.17059 5.81071 6.66675C5.81071 8.95166 6.98462 10.0001 8.47738 10.0001C9.9561 10.0001 11.144 8.98649 11.144 6.80008C11.144 5.28113 10.0868 4.00008 8.47738 4.00008ZM7.14404 6.66675C7.14404 8.17959 7.68952 8.66675 8.47738 8.66675C9.26251 8.66675 9.81071 8.19901 9.81071 6.80008C9.81071 5.96703 9.28781 5.33342 8.47738 5.33342C7.6332 5.33342 7.14404 5.8773 7.14404 6.66675Z" fill="black"/>
</svg>
