<svg width="813" height="108" viewBox="0 0 813 108" fill="none" xmlns="http://www.w3.org/2000/svg">
<path d="M296.168 25.7673C296.046 25.2808 296.046 24.7943 296.046 24.3079C296.046 17.9837 301.159 12.754 307.612 12.754C308.221 12.754 308.83 12.754 309.317 12.8757C311.021 7.03793 316.378 2.78125 322.709 2.78125C329.649 2.78125 335.371 7.88926 336.466 14.4567C339.875 15.6729 342.432 18.9566 342.432 22.8484C342.432 23.6998 342.31 24.5511 342.067 25.4024" stroke="#909FA8" stroke-width="4" stroke-miterlimit="10" stroke-linecap="round" stroke-linejoin="round"/>
<path d="M126.207 103.847C126.207 103.725 126.207 103.604 126.207 103.361C126.207 97.6444 130.103 92.7796 135.338 91.3202C136.19 76.4826 148.487 64.6855 163.584 64.6855C173.811 64.6855 182.82 70.1584 187.812 78.3069C188.907 78.0637 190.125 78.0637 191.342 78.0637C202.787 78.0637 212.04 87.3068 212.04 98.739C212.04 100.563 211.796 102.266 211.431 103.847" stroke="#909FA8" stroke-width="4" stroke-miterlimit="10" stroke-linecap="round" stroke-linejoin="round"/>
<path d="M126.207 104.333H2.02344" stroke="#909FA8" stroke-width="4" stroke-miterlimit="10" stroke-linecap="round" stroke-linejoin="round"/>
<path d="M210.944 105.55H355.094" stroke="#909FA8" stroke-width="4" stroke-miterlimit="10" stroke-linecap="round" stroke-linejoin="round"/>
<path d="M250.269 25.8889H296.046" stroke="#909FA8" stroke-width="4" stroke-miterlimit="10" stroke-linecap="round" stroke-linejoin="round"/>
<path d="M342.067 25.6458H364.469" stroke="#909FA8" stroke-width="4" stroke-miterlimit="10" stroke-linecap="round" stroke-linejoin="round"/>
<path d="M49.1401 91.8066H132.538" stroke="#909FA8" stroke-width="4" stroke-miterlimit="10" stroke-linecap="round" stroke-linejoin="round"/>
<path d="M713.765 61.5235C713.765 61.4019 713.765 61.2803 713.765 61.1587C713.765 56.2939 717.661 52.4021 722.531 52.4021C722.896 52.4021 723.14 52.4021 723.505 52.5237" stroke="#909FA8" stroke-width="4" stroke-miterlimit="10" stroke-linecap="round" stroke-linejoin="round"/>
<path d="M759.055 50.8208C759.177 50.8208 759.177 50.8208 759.299 50.8208C765.264 50.8208 770.013 55.564 770.013 61.5233" stroke="#909FA8" stroke-width="4" stroke-miterlimit="10" stroke-linecap="round" stroke-linejoin="round"/>
<path d="M713.765 61.5234H681.38" stroke="#909FA8" stroke-width="4" stroke-miterlimit="10" stroke-linecap="round" stroke-linejoin="round"/>
<path d="M810.311 61.5234H770.134" stroke="#909FA8" stroke-width="4" stroke-miterlimit="10" stroke-linecap="round" stroke-linejoin="round"/>
<path d="M723.383 52.5237C724.479 43.5239 732.149 36.5916 741.402 36.5916C750.046 36.5916 757.351 42.6725 759.177 50.821" stroke="#909FA8" stroke-width="4" stroke-miterlimit="10" stroke-linecap="round" stroke-linejoin="round"/>
</svg>
