<svg width="14" height="14" viewBox="0 0 14 14" fill="none" xmlns="http://www.w3.org/2000/svg">
<path fill-rule="evenodd" clip-rule="evenodd" d="M1.66659 0.333496H12.3333C13.0696 0.333496 13.6666 0.93045 13.6666 1.66683V12.3335C13.6666 13.0699 13.0696 13.6668 12.3333 13.6668H1.66659C0.930206 13.6668 0.333252 13.0699 0.333252 12.3335V1.66683C0.333252 0.93045 0.930206 0.333496 1.66659 0.333496ZM1.66659 1.66683V12.3335H12.3333V1.66683H1.66659ZM6.42196 7.00309H7.66658V11.0002H8.99992V7.00309H10.3215V5.66976H8.99992V5.00016C8.99992 4.63197 9.2984 4.3335 9.66658 4.3335H10.3333V3.00016H9.66658C8.56202 3.00016 7.66658 3.89559 7.66658 5.00016V5.66976H6.42196V7.00309Z" fill="#00AAEC"/>
</svg>
