<svg width="14" height="14" viewBox="0 0 14 14" fill="none" xmlns="http://www.w3.org/2000/svg">
<path fill-rule="evenodd" clip-rule="evenodd" d="M9.66659 0.333496H4.33325C2.12411 0.333496 0.333252 2.12436 0.333252 4.3335V9.66683C0.333252 11.876 2.12411 13.6668 4.33325 13.6668H9.66659C11.8757 13.6668 13.6666 11.876 13.6666 9.66683V4.3335C13.6666 2.12436 11.8757 0.333496 9.66659 0.333496ZM1.66659 4.3335C1.66659 2.86074 2.86049 1.66683 4.33325 1.66683H9.66658C11.1393 1.66683 12.3333 2.86074 12.3333 4.3335V9.66683C12.3333 11.1396 11.1393 12.3335 9.66658 12.3335H4.33325C2.86049 12.3335 1.66659 11.1396 1.66659 9.66683V4.3335ZM6.99992 10.3335C5.15897 10.3335 3.66658 8.84111 3.66658 7.00016C3.66658 5.15921 5.15897 3.66683 6.99992 3.66683C8.84087 3.66683 10.3333 5.15921 10.3333 7.00016C10.3333 8.84111 8.84087 10.3335 6.99992 10.3335ZM6.99992 9.00016C8.10449 9.00016 8.99992 8.10473 8.99992 7.00016C8.99992 5.89559 8.10449 5.00016 6.99992 5.00016C5.89535 5.00016 4.99992 5.89559 4.99992 7.00016C4.99992 8.10473 5.89535 9.00016 6.99992 9.00016ZM10.9999 3.66683C10.9999 4.03502 10.7014 4.3335 10.3333 4.3335C9.96506 4.3335 9.66659 4.03502 9.66659 3.66683C9.66659 3.29864 9.96506 3.00016 10.3333 3.00016C10.7014 3.00016 10.9999 3.29864 10.9999 3.66683Z" fill="#70787C"/>
</svg>
