<svg width="15" height="13" viewBox="0 0 15 13" fill="none" xmlns="http://www.w3.org/2000/svg">
<path fill-rule="evenodd" clip-rule="evenodd" d="M13.0796 2.00568L14.0228 2.11583L13.5988 2.9655C13.3921 3.37985 13.1851 3.7942 12.9779 4.20855C12.9534 4.29631 12.9102 4.37324 12.8464 4.47341C12.8197 4.51526 12.7285 4.6484 12.7243 4.65479C12.7002 4.69088 12.6824 4.71935 12.6696 4.74215V6.33451C12.6696 10.4092 8.72627 12.9985 5.00228 12.9985C4.24026 12.9985 3.6613 12.9619 2.99835 12.8173C1.90735 12.5792 1.09543 12.1059 0.723901 11.2788L0.341392 10.4273L1.27098 10.3418C2.11192 10.2645 2.84104 10.1042 3.40098 9.88972C1.86376 9.6425 1.00232 8.96735 1.00232 7.69942V7.03275H1.66899C1.81546 7.03275 1.94754 7.02087 2.06561 6.99906C0.911919 6.30926 0.334066 5.20269 0.334066 3.66784C0.33394 3.60243 0.33394 3.60243 0.333547 3.53248C0.329213 2.75885 0.370767 2.34547 0.582551 1.81789C0.718281 1.47977 0.914473 1.16675 1.17852 0.879942L1.68159 0.333496L2.1707 0.892475C3.78255 2.73457 5.37589 3.85213 7.0027 3.98731C7.00965 2.28753 8.29428 1.00118 10.0028 1.00118C10.7993 1.00118 11.5218 1.30351 12.0896 1.84865C12.4003 1.9125 12.7304 1.96489 13.0796 2.00568ZM11.6057 3.10817L11.4013 3.06189L11.2602 2.90701C10.9189 2.53253 10.4905 2.33451 10.0028 2.33451C9.0275 2.33451 8.33601 3.02943 8.33601 4.00118C8.33601 4.15999 8.3319 4.25977 8.31212 4.39093C8.23318 4.91427 7.93963 5.33451 7.33599 5.33451C5.3373 5.33451 3.53416 4.26377 1.77585 2.43501C1.68521 2.71057 1.66389 2.99381 1.66686 3.52501C1.66727 3.59605 1.66727 3.59605 1.66741 3.66784C1.66741 5.03318 2.22055 5.78001 3.53023 6.19629L3.99496 6.344V6.83163C3.99496 7.42296 3.43474 7.97959 2.61505 8.22892C2.9908 8.514 3.75926 8.66784 5.00252 8.66784H5.66919V9.33451C5.66919 10.2897 4.57167 11.0375 2.91376 11.4281C3.45444 11.5937 4.17436 11.6651 5.00228 11.6651C8.07856 11.6651 11.3363 9.52603 11.3363 6.33451V4.66784C11.3363 4.47199 11.393 4.30198 11.4874 4.12522C11.5242 4.05611 11.5648 3.99022 11.6149 3.91508C11.6244 3.90093 11.6594 3.84967 11.6872 3.80869L11.74 3.70302C11.8256 3.53179 11.9112 3.36057 11.9968 3.18934C11.8638 3.16416 11.7334 3.1371 11.6057 3.10817Z" fill="#70787C"/>
</svg>
