<?xml version="1.0" encoding="utf-8"?><svg viewBox="0 0 813 391.84" xmlns="http://www.w3.org/2000/svg" xmlns:xlink="http://www.w3.org/1999/xlink"><style>:root>svg{display:none}:root>svg:target{display:block}</style><svg viewBox="0 0 12 16" id="adres-icon" xmlns="http://www.w3.org/2000/svg"><path fill-rule="evenodd" clip-rule="evenodd" d="M6 15.552l.438-.383C10.126 11.949 12 9.138 12 6.667c0-3.5-2.731-6-6-6s-6 2.5-6 6c0 2.47 1.874 5.282 5.562 8.502l.438.383zm0-1.777c-3.129-2.82-4.667-5.209-4.667-7.109C1.333 3.932 3.443 2 6 2s4.667 1.93 4.667 4.667c0 1.899-1.538 4.289-4.667 7.108zM6 3.333A3.333 3.333 0 116 10a3.333 3.333 0 010-6.667zM4 6.666a2 2 0 114 0 2 2 0 01-4 0z"/></svg><svg viewBox="0 0 28 32" id="belay-icon" xmlns="http://www.w3.org/2000/svg"><path fill-rule="evenodd" clip-rule="evenodd" d="M.405 1.325c0-.388.315-.703.704-.703H16.57c.187 0 .366.074.497.206l5.609 5.608c.132.132.206.31.206.497v4.837a.703.703 0 01-1.407 0V7.224L16.279 2.03H1.812v27.779h20.366a.703.703 0 110 1.406H1.108a.703.703 0 01-.703-.703V1.325z"/><path d="M15.87 1.325c0-.388.313-.703.7-.703.387 0 .702.315.702.703H15.87zm0 5.608V1.325h1.401v5.608H15.87zm1.401 0a.702.702 0 01-.7.704.703.703 0 01-.702-.704h1.402z"/><path fill-rule="evenodd" clip-rule="evenodd" d="M15.867 6.933c0-.389.315-.704.703-.704h5.608a.703.703 0 110 1.407H16.57a.703.703 0 01-.703-.703zM15.751 15.793v5.93c0 1.141.772 2.35 1.96 3.426 1.087.984 2.402 1.746 3.41 2.128 1.006-.382 2.322-1.144 3.408-2.128 1.189-1.076 1.96-2.285 1.96-3.425v-5.93c-1.8-.814-3.587-1.196-5.365-1.186h-.008c-1.778-.01-3.565.371-5.365 1.185zm-.703-.446l-.308-.633c2.113-1.028 4.242-1.525 6.38-1.513 2.139-.012 4.268.485 6.38 1.513a.703.703 0 01.397.633v6.377c0 1.743-1.139 3.305-2.424 4.468-1.304 1.181-2.905 2.086-4.128 2.498a.704.704 0 01-.45 0c-1.222-.412-2.823-1.317-4.128-2.498-1.284-1.163-2.422-2.725-2.422-4.468v-6.377h.703z"/><path fill-rule="evenodd" clip-rule="evenodd" d="M24.642 18.181a.703.703 0 010 .995l-3.204 3.204a.703.703 0 01-.995 0L18.8 20.738a.703.703 0 01.995-.995l1.144 1.145 2.707-2.707a.703.703 0 01.995 0z"/><path d="M5.216 7.464c.47 0 .87-.166 1.2-.497a.346.346 0 00.105-.254.344.344 0 00-.104-.252.344.344 0 00-.252-.104c-.1 0-.185.035-.254.104a.947.947 0 01-.695.289.946.946 0 01-.694-.289.947.947 0 01-.288-.694.95.95 0 01.288-.697.947.947 0 01.694-.288c.27 0 .502.096.695.288.07.071.154.107.254.107a.34.34 0 00.252-.107.343.343 0 00.104-.252.343.343 0 00-.104-.252 1.632 1.632 0 00-1.2-.499c-.47 0-.87.167-1.201.5-.332.33-.497.73-.497 1.2 0 .469.165.87.497 1.2.331.332.731.498 1.2.498v-.001zm2.654-3.29a.36.36 0 00-.39-.08.358.358 0 00-.22.331v2.68c0 .1.034.185.104.255.07.07.154.104.253.104a.343.343 0 00.252-.104.346.346 0 00.105-.255V5.287l.73.73c.07.07.154.105.252.105.1 0 .184-.035.254-.104l.73-.73v1.817c0 .1.035.185.105.255.07.07.154.104.252.104a.344.344 0 00.252-.104.342.342 0 00.107-.255v-2.68a.35.35 0 00-.062-.2.356.356 0 00-.55-.052L8.956 5.261 7.868 4.173h.002zm5.99 1.145a.517.517 0 01-.16.38.516.516 0 01-.379.156h-.982V4.782h.982c.148 0 .275.053.38.159.105.104.158.23.158.379zm-.686 1.25l.79.79c.07.07.153.105.251.105a.35.35 0 00.254-.104.346.346 0 00.105-.255.343.343 0 00-.105-.252l-.478-.478c.178-.114.319-.262.422-.445.107-.19.16-.393.16-.61 0-.346-.122-.64-.367-.886a1.206 1.206 0 00-.885-.368h-1.339c-.1 0-.184.036-.254.107a.343.343 0 00-.104.252v2.68c0 .1.034.185.104.254.07.07.154.105.254.105a.343.343 0 00.252-.105.346.346 0 00.104-.254v-.536h.835zM9.5 12.023c-.311 0-.563-.316-.563-.707 0-.39.251-.707.562-.707v1.414zm7.7 0H9.5v-1.414h7.7v1.414zm0-1.414c.31 0 .562.317.562.707 0 .39-.252.707-.563.707v-1.414zM4.413 12.021a.705.705 0 010-1.41v1.41zm2.028 0H4.413v-1.41H6.44v1.41zm0-1.41a.704.704 0 010 1.41v-1.41z"/><path fill-rule="evenodd" clip-rule="evenodd" d="M8.796 14.56c0-.389.315-.704.704-.704h2.652a.703.703 0 010 1.407H9.5a.703.703 0 01-.704-.703z"/><path d="M4.412 15.263a.704.704 0 010-1.407v1.407zm2.028 0H4.412v-1.406H6.44v1.406zm0-1.406a.704.704 0 010 1.407v-1.407z"/><path fill-rule="evenodd" clip-rule="evenodd" d="M8.796 17.803c0-.388.315-.703.704-.703h2.735a.703.703 0 110 1.407H9.498a.703.703 0 01-.703-.704z"/><path d="M4.412 18.506a.704.704 0 010-1.407v1.407zm2.028 0H4.412V17.1H6.44v1.406zm0-1.406a.704.704 0 010 1.407V17.1zM4.412 24.989a.702.702 0 01-.704-.7c0-.385.316-.698.704-.698v1.397zm7.976 0H4.412V23.59h7.976v1.398zm0-1.398c.389 0 .704.313.704.7a.702.702 0 01-.704.698v-1.397z"/><path fill-rule="evenodd" clip-rule="evenodd" d="M8.796 21.047c0-.389.315-.704.704-.704h2.735a.703.703 0 110 1.407H9.498a.703.703 0 01-.703-.703z"/><path d="M4.412 21.75a.704.704 0 010-1.407v1.407zm2.028 0H4.412v-1.407H6.44v1.407zm0-1.407a.704.704 0 010 1.407v-1.406z"/></svg><svg viewBox="0 0 38 22" id="check-icon" xmlns="http://www.w3.org/2000/svg"><path fill-rule="evenodd" clip-rule="evenodd" d="M.865 4.162A3.767 3.767 0 014.623.405h23.001c.89 0 1.712.314 2.357.835a.703.703 0 01-.885 1.094 2.332 2.332 0 00-1.472-.522H4.623a2.36 2.36 0 00-2.351 2.35v13.97a2.36 2.36 0 002.35 2.351h23.002c.624 0 1.194-.246 1.618-.65a.703.703 0 11.97 1.018 3.744 3.744 0 01-2.588 1.039H4.623a3.767 3.767 0 01-3.758-3.758V4.162z"/><path d="M10.688 5.85V4.444l.182.004.18.015.177.022.174.032.172.04.168.048.165.056.161.064.158.072.152.079.148.086.144.092.138.1.134.106.128.112.123.118.117.124.11.13.105.134.098.14.092.144.085.149.078.153.07.158.064.162.056.165.047.17.04.171.03.175.023.178.013.18.005.183h-1.407l-.002-.113-.009-.11-.013-.108-.019-.107-.024-.104-.029-.102-.034-.1-.038-.098-.043-.096-.047-.093-.051-.09-.056-.088-.06-.084-.063-.082-.067-.078-.07-.076-.075-.07-.078-.068-.08-.064-.084-.06-.086-.056-.09-.052-.091-.047-.094-.043-.096-.039-.099-.033-.1-.03-.103-.023-.105-.02-.106-.013-.108-.008-.11-.003zm-2.13 2.156H7.15l.005-.182.014-.18.022-.178.03-.175.04-.172.048-.17.055-.165.064-.162.07-.157.078-.154.085-.149.092-.144.098-.14.105-.134.11-.13.118-.123.122-.118.129-.112.133-.106.139-.099.143-.093L9 4.877l.152-.08.157-.07.161-.065.165-.056.169-.048.172-.04.174-.032.178-.022.18-.015.181-.004v1.404l-.11.004-.108.008-.106.013-.105.02-.102.023-.1.029-.1.034-.096.038-.094.043-.092.048-.09.052-.085.056-.084.06-.081.064-.077.067-.075.071-.07.076-.068.078-.063.082-.06.084-.055.088-.052.09-.047.093-.043.096-.038.097-.034.1-.029.103-.024.104-.018.107-.014.108-.008.11-.003.113v-.002zm2.13 2.157v1.404l-.181-.004-.18-.014-.178-.023-.174-.032-.172-.04-.169-.048-.165-.056-.161-.064-.157-.072L9 11.135l-.149-.086-.143-.093-.139-.1-.133-.105-.129-.112-.122-.118-.117-.123-.11-.13-.106-.134-.098-.14-.092-.145-.085-.149-.078-.153-.07-.158-.064-.162-.055-.165-.048-.169-.04-.172-.03-.175-.022-.178-.014-.18-.005-.182h1.407l.003.112.008.11.014.109.018.106.024.104.03.102.033.1.038.099.043.095.047.093.052.09.055.088.06.085.063.081.068.078.07.076.075.07.077.068.081.064.084.06.086.057.09.052.091.047.094.043.097.038.098.034.101.03.102.023.105.019.106.013.108.009.11.003v-.001zm2.131-2.157h1.407l-.005.182-.013.18-.022.178-.031.175-.04.172-.047.17-.056.164-.063.162-.07.158-.079.153-.085.15-.092.144-.098.14-.105.134-.11.13-.117.123-.123.118-.128.112-.134.106-.138.1-.143.092-.148.087-.153.079-.158.071-.16.064-.166.056-.168.048-.172.04-.174.032-.177.023-.18.014-.182.005v-1.405l.11-.003.108-.008.107-.014.105-.018.102-.024.1-.03.1-.033.096-.039.094-.043.09-.047.09-.052.087-.056.083-.06.081-.064.077-.067.075-.071.07-.076.068-.078.063-.081.06-.085.055-.087.052-.09.047-.094.043-.095.038-.098.034-.1.029-.103.024-.104.019-.106.013-.109.008-.11.003-.112zM17.9 7.459a.703.703 0 010-1.407v1.406zm3.993 0H17.9V6.052h3.993v1.407zm0-1.407a.703.703 0 010 1.407V6.052zM17.9 11.71a.703.703 0 010-1.407v1.406zm3.895 0H17.9v-1.407h3.895v1.406zm0-1.407a.703.703 0 010 1.407v-1.407zM16.158 17.148a.704.704 0 01-1.407 0h1.407zm0-1.29v1.29h-1.406v-1.29h1.406zm-3.77-2.364v-1.407l.193.005.19.014.19.024.185.034.182.042.18.051.175.06.171.068.167.075.162.084.158.091.153.098.148.105.142.112.137.119.13.124.125.131.119.137.112.142.105.148.098.153.091.158.084.163.076.167.068.171.06.176.05.179.043.182.033.186.024.188.015.191.004.193h-1.406l-.004-.121-.009-.12-.015-.118-.02-.116-.027-.113-.032-.112-.037-.109-.042-.107-.048-.104-.053-.102-.057-.1-.061-.095-.066-.093-.071-.09-.075-.086-.079-.083-.082-.079-.087-.074-.09-.071-.092-.067-.096-.061-.099-.057-.102-.053-.105-.048-.107-.042-.109-.037-.111-.032-.114-.026-.115-.021-.118-.015-.12-.01-.121-.003zm-3.401-1.407h3.4v1.407h-3.4v-1.407zm-2.364 3.771H5.216l.005-.193.014-.191.024-.189.033-.185.043-.183.05-.179.06-.175.069-.172.075-.166.084-.163.09-.158.1-.153.104-.148.113-.141.118-.137.125-.131.13-.125.138-.118.141-.112.148-.105.154-.098.157-.091.163-.084.167-.076.171-.068.176-.06.179-.05.182-.043.186-.033.188-.024.19-.015.194-.004v1.406l-.121.004-.12.009-.118.015-.115.02-.114.027-.111.032-.11.037-.106.042-.105.048-.102.053-.1.057-.095.061-.093.066-.09.071-.086.075-.082.079-.08.082-.074.086-.07.09-.067.093-.061.096-.058.099-.052.102-.048.105-.042.107-.037.109-.032.111-.026.114-.021.115-.015.118-.01.12-.003.121zm-1.407 1.29v-1.29h1.407v1.29H5.216zm1.407 0a.704.704 0 01-1.407 0h1.406z"/><path fill-rule="evenodd" clip-rule="evenodd" d="M25.29 5.977v5.93c0 1.14.772 2.35 1.96 3.426 1.087.983 2.402 1.746 3.41 2.127 1.006-.381 2.322-1.144 3.408-2.127 1.189-1.076 1.96-2.285 1.96-3.426v-5.93c-1.8-.814-3.587-1.196-5.365-1.185h-.008c-1.778-.01-3.565.371-5.365 1.185zm-.703-.447l-.308-.632c2.113-1.029 4.242-1.525 6.38-1.513 2.139-.012 4.268.485 6.38 1.513a.703.703 0 01.396.632v6.377c0 1.744-1.138 3.306-2.423 4.469-1.304 1.18-2.906 2.086-4.128 2.498a.704.704 0 01-.45 0c-1.222-.412-2.824-1.317-4.128-2.498-1.284-1.163-2.423-2.725-2.423-4.469V5.53h.704z"/><path fill-rule="evenodd" clip-rule="evenodd" d="M34.18 8.365a.703.703 0 010 .994l-3.205 3.204a.703.703 0 01-.995 0l-1.641-1.642a.703.703 0 01.995-.994l1.144 1.144 2.706-2.706a.703.703 0 01.995 0z"/></svg><svg viewBox="0 0 15 15" id="clock" xmlns="http://www.w3.org/2000/svg"><path fill-rule="evenodd" clip-rule="evenodd" d="M7.5 14.375a6.875 6.875 0 110-13.75 6.875 6.875 0 010 13.75zm0-1.25a5.625 5.625 0 100-11.25 5.625 5.625 0 000 11.25zm3.125-6.25h-2.5V3.75h-1.25v4.375h3.75v-1.25z"/></svg><svg viewBox="0 0 813 108" id="clouds" xmlns="http://www.w3.org/2000/svg"><path d="M296.168 25.767c-.122-.486-.122-.973-.122-1.46 0-6.323 5.113-11.553 11.566-11.553.609 0 1.218 0 1.705.122 1.704-5.838 7.061-10.095 13.392-10.095 6.94 0 12.662 5.108 13.757 11.676 3.409 1.216 5.966 4.5 5.966 8.391 0 .852-.122 1.703-.365 2.554M126.207 103.847v-.486c0-5.717 3.896-10.581 9.131-12.04.852-14.838 13.149-26.635 28.246-26.635 10.227 0 19.236 5.472 24.228 13.62 1.095-.242 2.313-.242 3.53-.242 11.445 0 20.698 9.243 20.698 20.675 0 1.824-.244 3.527-.609 5.108M126.207 104.333H2.023M210.944 105.55h144.15M250.269 25.889h45.777M342.067 25.646h22.402M49.14 91.807h83.398M713.765 61.523v-.364a8.725 8.725 0 018.766-8.757c.365 0 .609 0 .974.122M759.055 50.82h.244c5.965 0 10.714 4.744 10.714 10.703M713.765 61.523H681.38M810.311 61.523h-40.177"/><path d="M723.383 52.524c1.096-9 8.766-15.932 18.019-15.932 8.644 0 15.949 6.08 17.775 14.229"/></svg><svg viewBox="0 0 14 14" id="fs-icon" xmlns="http://www.w3.org/2000/svg"><path fill-rule="evenodd" clip-rule="evenodd" d="M1.667.333h10.666c.737 0 1.334.597 1.334 1.334v10.666c0 .737-.597 1.334-1.334 1.334H1.667a1.333 1.333 0 01-1.334-1.333V1.667C.333.93.93.333 1.667.333zm0 1.334v10.666h10.666V1.668H1.667zm4.755 5.336h1.245V11H9V7.003h1.322V5.67H9V5c0-.368.298-.667.667-.667h.666V3h-.666a2 2 0 00-2 2v.67H6.422v1.333z"/></svg><svg viewBox="0 0 391.837 391.837" id="heart" xmlns="http://www.w3.org/2000/svg"><path d="M285.257 35.528c58.743.286 106.294 47.836 106.58 106.58 0 107.624-195.918 214.204-195.918 214.204S0 248.165 0 142.108c0-58.862 47.717-106.58 106.58-106.58a105.534 105.534 0 0189.339 48.065 106.578 106.578 0 0189.338-48.065z"/></svg><svg viewBox="0 0 14 14" id="in-icon" xmlns="http://www.w3.org/2000/svg"><path fill-rule="evenodd" clip-rule="evenodd" d="M9.667.333H4.333a4 4 0 00-4 4v5.334a4 4 0 004 4h5.334a4 4 0 004-4V4.334a4 4 0 00-4-4zm-8 4a2.667 2.667 0 012.666-2.666h5.334a2.667 2.667 0 012.666 2.667v5.333a2.667 2.667 0 01-2.666 2.667H4.333a2.667 2.667 0 01-2.666-2.667V4.334zm5.333 6a3.333 3.333 0 110-6.666 3.333 3.333 0 010 6.667zM7 9a2 2 0 100-4 2 2 0 000 4zm4-5.333a.667.667 0 11-1.333 0 .667.667 0 011.333 0z"/></svg><svg viewBox="0 0 36 19" id="link-icon" xmlns="http://www.w3.org/2000/svg"><path d="M13.802 9.132a.626.626 0 010-1.254v1.254zm7.758 0h-7.758V7.878h7.758v1.254zm0-1.254a.626.626 0 010 1.254V7.878z"/><path d="M14.178 8.948a.627.627 0 01-.887-.886l.886.886zm1.554-1.554l-1.554 1.554-.887-.886 1.554-1.554.887.886zm-.887-.886a.627.627 0 01.887.886l-.887-.886zM21.492 10.18a.626.626 0 010 1.254v-1.253zm-7.758 0h7.758v1.254h-7.758v-1.253zm0 1.254a.626.626 0 010-1.253v1.253z"/><path d="M21.117 10.364a.627.627 0 01.886.887l-.886-.887zm-1.554 1.554l1.554-1.554.886.887-1.554 1.554-.886-.886zm.886.887a.627.627 0 01-.886-.886l.886.886zM7.666 2.397V.92l.239.006.236.018.233.03.23.042.225.052.221.064.217.074.212.084.206.094.2.104.196.113.188.121.182.131.176.14.168.146.162.156.153.162.146.17.138.177.13.183.12.19.111.196.103.202.093.208.083.212.073.218.063.222.052.226.04.23.03.235.018.236.007.24h-1.48l-.003-.166-.013-.163-.02-.161-.028-.158-.035-.156-.043-.151-.05-.15-.057-.145-.063-.142-.07-.138-.077-.135-.082-.13-.09-.125-.093-.121-.1-.116-.105-.112-.11-.106-.116-.1-.12-.096-.124-.089-.128-.083-.133-.077-.136-.07-.14-.064-.144-.057-.147-.05-.15-.043-.152-.036-.156-.028-.158-.02-.161-.013-.164-.004h-.003zM4.496 5.6h-1.48l.007-.24.018-.236.03-.235.041-.23.052-.226.062-.222.073-.218.084-.212.092-.208.103-.202.112-.196.12-.19.13-.183.137-.177.146-.17.154-.163.161-.155.169-.147.175-.139.182-.13.189-.122.195-.113.2-.104.207-.094.212-.084.216-.074.221-.064.226-.052.23-.042.232-.03.237-.018.239-.006v1.477l-.164.004-.161.012-.158.02-.156.029-.153.035-.15.043-.146.05-.144.058-.14.063-.136.07-.133.077-.129.083-.124.09-.12.095-.115.1-.11.107-.105.111-.1.116-.094.121-.089.126-.082.13-.077.134-.07.139-.063.141-.057.146-.05.15-.043.15-.035.156-.028.158-.02.161-.013.164L4.5 5.6h-.003zm3.17 3.205v1.477l-.239-.007-.236-.018-.233-.03-.23-.041-.225-.053-.221-.063-.217-.074-.212-.084-.206-.094-.2-.104-.196-.113-.188-.122-.182-.13-.176-.14-.168-.147-.162-.155-.153-.163-.146-.17-.138-.176-.13-.184-.12-.19-.111-.196-.103-.202-.093-.207-.083-.213-.073-.217-.063-.222-.052-.227-.04-.23-.03-.234-.018-.237-.007-.24h1.48l.003.166.013.164.02.16.028.159.035.155.043.152.05.149.057.146.063.141.07.139.077.134.082.13.09.126.093.12.1.117.105.111.11.106.116.101.12.095.124.09.129.083.132.076.136.07.14.064.144.058.147.05.15.043.152.035.156.028.158.02.161.013.164.004h.003zm3.17-3.205h1.48l-.007.24-.018.237-.03.234-.04.23-.053.227-.062.222-.073.217-.083.213-.093.208-.103.202-.112.195-.12.19-.13.184-.137.177-.146.17-.154.162-.161.155-.169.147-.175.14-.182.13-.189.122-.195.113-.2.104-.207.094-.212.084-.216.074-.221.063-.226.053-.23.041-.232.03-.237.018-.239.007V8.807l.164-.004.161-.013.158-.02.156-.028.153-.035.15-.044.146-.05.144-.057.14-.064.136-.07.133-.077.129-.083.124-.09.12-.094.115-.101.11-.106.105-.112.1-.116.094-.12.089-.127.082-.13.077-.134.07-.138.063-.142.057-.146.05-.149.043-.151.035-.156.028-.157.02-.161.013-.164.004-.166h.003zM14.981 18.21a.74.74 0 01-1.479 0h1.48zm0-1.779v1.78h-1.479v-1.78h1.48zm-4.97-3.49v-1.48l.255.007.251.02.249.03.245.045.24.055.236.068.23.079.226.089.22.1.214.11.208.12.201.129.195.138.188.148.18.156.173.165.164.172.156.18.148.188.139.195.13.202.119.207.11.214.1.22.09.226.077.231.068.236.056.24.044.245.031.248.02.252.006.254h-1.479l-.004-.179-.014-.177-.022-.173-.03-.17-.04-.17-.047-.165-.055-.161-.063-.158-.07-.154-.078-.15-.084-.147-.092-.142-.097-.137-.104-.133-.11-.127-.117-.122-.122-.116-.126-.11-.133-.104-.137-.097-.142-.092-.146-.084-.15-.078-.155-.07-.158-.063-.161-.055-.165-.047-.168-.039-.17-.03-.174-.023-.177-.014-.18-.004.001.001zm-4.69-1.48h4.69v1.48h-4.69v-1.48zm-3.49 4.97H.35l.007-.254.02-.252.031-.248.044-.245.056-.24.067-.236.08-.23.088-.226.1-.22.11-.215.12-.208.13-.201.139-.195.147-.188.156-.18.165-.173.173-.164.18-.156.188-.148.194-.139.202-.129.208-.12.214-.11.22-.1.226-.09.231-.079.236-.067.24-.056.244-.044.25-.031.25-.02.255-.006v1.479l-.18.004-.176.014-.173.022-.171.03-.169.04-.165.047-.162.056-.157.062-.155.07-.15.078-.147.084-.141.091-.137.098-.133.104-.127.11-.122.116-.115.122-.11.127-.105.132-.098.137-.09.142-.085.147-.077.15-.07.155-.063.157-.055.162-.048.165-.04.169-.03.17-.022.174-.014.177-.004.179zm-1.48 1.78v-1.78h1.48v1.78H.35zm1.48 0a.74.74 0 01-1.48 0h1.48zM27.894 2.397V.92l.239.006.236.018.233.03.23.042.224.052.222.064.216.074.212.084.206.094.201.104.195.113.188.121.183.131.175.14.169.146.16.156.155.162.146.17.137.176.13.184.12.19.112.196.102.202.093.208.083.212.074.218.062.222.052.226.04.23.03.235.019.236.006.24h-1.479l-.004-.166-.013-.163-.02-.161L31 4.954l-.035-.156-.043-.151-.05-.15-.057-.145-.063-.142-.07-.138-.076-.135-.083-.13-.089-.125-.094-.121-.1-.116-.105-.112-.11-.106-.116-.1-.12-.096-.124-.089-.129-.083-.133-.077-.136-.07-.14-.064-.143-.057-.147-.05-.15-.043-.153-.035-.156-.028-.158-.02-.16-.013-.164-.004-.002-.001zM24.724 5.6h-1.48l.007-.24.018-.236.03-.235.04-.23.053-.226.062-.222.073-.218.083-.212.093-.208.103-.202.112-.196.12-.19.13-.183.137-.177.146-.17.154-.163.161-.155.168-.147.176-.139.182-.13.189-.122.194-.113.201-.104.207-.094.211-.084.217-.074.221-.064.226-.052.23-.042.232-.03.236-.018.24-.006v1.477l-.164.004-.161.012-.159.02-.155.029-.153.035-.15.043-.146.05-.144.058-.14.063-.137.07-.132.077-.129.083-.124.09-.12.095-.115.1-.11.107-.105.111-.1.116-.094.121-.09.126-.082.13-.076.134-.07.139-.063.141-.058.146-.05.15-.042.15-.035.156-.028.158-.02.161-.013.164-.004.166h-.003zm3.17 3.205v1.477l-.24-.007-.235-.018-.233-.03-.23-.041-.225-.053-.222-.063-.216-.074-.212-.084-.206-.094-.201-.104-.195-.113-.188-.122-.183-.13-.175-.14-.168-.147-.162-.155-.154-.163-.146-.17-.137-.176-.13-.184-.12-.19-.111-.196-.103-.202-.093-.207-.083-.213-.074-.217-.062-.222-.052-.227-.04-.23-.03-.234-.019-.237-.006-.24h1.48l.003.166.013.164.02.16.028.159.035.155.043.152.05.149.057.146.063.141.07.139.077.134.082.13.089.126.094.12.1.117.105.111.11.106.116.101.12.095.123.09.13.083.132.076.136.07.14.064.144.058.147.05.15.043.152.035.156.028.158.02.161.013.164.004h.003zm3.17-3.205h1.479l-.006.24-.018.237-.03.234-.041.23-.052.227-.062.222-.074.217-.083.213-.093.208-.102.202-.112.195-.12.19-.13.184-.137.177-.146.17-.154.162-.162.155-.168.147-.175.14-.183.13-.188.122-.195.113-.2.104-.207.094-.212.084-.216.074-.222.063-.225.053-.229.041-.233.03-.236.018-.24.007V8.807l.164-.004.161-.013.158-.02.156-.028.153-.035.15-.044.147-.05.143-.057.14-.063.136-.07.133-.077.129-.083.124-.09.12-.095.115-.1.11-.106.106-.112.1-.116.094-.121.089-.126.082-.13.077-.134.07-.139.063-.141.057-.146.05-.15.043-.15.035-.156.028-.158.02-.161.013-.164.004-.166h.002zM35.209 18.21a.74.74 0 01-1.48 0h1.48zm0-1.779v1.78h-1.48v-1.78h1.48zm-4.97-3.49v-1.48l.254.007.251.02.249.03.245.045.24.055.236.068.23.079.226.089.22.1.214.11.208.12.202.129.194.138.188.148.18.156.173.165.164.172.156.18.148.188.139.195.13.202.12.207.11.214.099.22.09.226.078.231.067.236.056.24.044.245.032.248.019.252.006.254h-1.479l-.004-.179-.014-.177-.022-.173-.03-.17-.04-.17-.047-.165-.055-.161-.063-.158-.07-.154-.078-.15-.084-.147-.092-.142-.097-.137-.104-.133-.11-.127-.117-.122-.122-.116-.126-.11-.133-.104-.137-.097-.142-.092-.146-.084-.15-.078-.155-.07-.158-.063-.161-.055-.165-.047-.168-.039-.17-.03-.174-.023-.177-.014-.179-.004v.001zm-4.69-1.48h4.69v1.48h-4.69v-1.48zm-3.492 4.97h-1.479l.007-.254.02-.252.031-.248.044-.245.056-.24.067-.236.08-.23.088-.226.1-.22.11-.215.12-.208.13-.201.139-.195.147-.188.156-.18.165-.173.173-.164.18-.156.188-.148.194-.139.202-.129.208-.12.215-.11.22-.1.225-.09.231-.079.236-.067.24-.056.244-.044.25-.031.25-.02.255-.006v1.479l-.18.004-.176.014-.173.022-.171.03-.169.04-.165.047-.162.056-.157.062-.155.07-.15.078-.147.084-.141.091-.137.098-.133.104-.127.11-.122.116-.115.122-.11.127-.105.132-.098.137-.09.142-.085.147-.077.15-.07.155-.063.157-.055.162-.048.165-.04.169-.03.17-.022.174-.014.177-.004.179zm-1.479 1.78v-1.78h1.48v1.78h-1.48zm1.48 0a.74.74 0 01-1.48 0h1.48z"/></svg><svg viewBox="0 0 215 24" id="logo" xmlns="http://www.w3.org/2000/svg"><path fill-rule="evenodd" clip-rule="evenodd" d="M16.517 6.914V23.22H8.26V6.914h8.258zM0 .8h8.259v6.114H0V.8zM203.965 23.995c-3.487 0-7.433-.675-10.428-2.486l2.751-6.048c.663.374 1.297.7 2.009.987 2.097.846 4.798 1.414 7.073 1.114.486-.063 1.339-.214 1.339-.836 0-.742-1.301-.981-1.867-1.127-2.114-.545-4.134-.833-6.245-1.574-2.891-1.014-4.615-3.157-4.615-6.18 0-1.457.424-2.803 1.272-4.006C197.365.846 201.516 0 205.017 0c1.597 0 3.171.168 4.721.504 1.596.346 2.937.837 4.357 1.618l-2.57 6.014c-2.095-1.027-4.192-1.775-6.574-1.775-.951 0-1.653.107-2.108.32-.818.384-.764 1.17.116 1.502 2.191.829 4.944.987 7.358 1.818 2.911 1.003 4.683 3.095 4.683 6.15a6.741 6.741 0 01-1.273 3.99c-2.123 2.982-6.258 3.855-9.762 3.855zM24.635.805h25.14V6.91h-8.38v16.28h-8.38V6.91h-8.38V.805zm128.489 23.19c-3.487 0-7.433-.675-10.427-2.486l2.75-6.048c.663.374 1.298.7 2.01.987 2.097.846 4.798 1.414 7.072 1.114.486-.063 1.34-.214 1.34-.836 0-.742-1.302-.981-1.867-1.127-2.115-.545-4.134-.833-6.246-1.574-2.89-1.014-4.614-3.157-4.614-6.18 0-1.457.423-2.803 1.271-4.006C146.525.846 150.675 0 154.177 0c1.598 0 3.171.168 4.721.504 1.596.346 2.936.837 4.357 1.618l-2.571 6.014c-2.094-1.027-4.192-1.775-6.573-1.775-.951 0-1.654.107-2.109.32-.818.384-.763 1.17.117 1.502 2.191.829 4.944.987 7.358 1.818 2.91 1.003 4.683 3.095 4.683 6.15a6.748 6.748 0 01-1.273 3.99c-2.123 2.982-6.258 3.854-9.763 3.854zM184.36.805l-4.954 8.544-4.955-8.544h-9.217l9.982 16.28v6.105h8.379v-6.105l9.982-16.28h-9.217zM92.533 14.033h4.641l-2.32-8.266-2.32 8.266zm6.355 6.105H90.82l-.857 3.052h-8.379L87.868.805h13.972l6.285 22.385h-8.38l-.857-3.052zM129.42.805h8.379V23.19h-11.003l-5.966-10.055V23.19h-8.379V.805h9.444l7.524 12.683.001-12.683zM74.012 16.223l3.172 6.967h-8.38l-2.778-6.105h-4.134v6.105h-8.38V.805h16.76c4.607 0 8.378 3.663 8.378 8.14 0 3.173-1.894 5.936-4.638 7.278zM68.176 6.91h-6.284v4.07h6.284c.57 0 1.092-.23 1.474-.602a2 2 0 00.62-1.433 2 2 0 00-.62-1.433 2.116 2.116 0 00-1.474-.602z"/><path fill-rule="evenodd" clip-rule="evenodd" d="M24.776 6.914V23.22h-8.259V6.914h8.259zM8.259.8h8.258v6.114H8.26V.8z"/><path fill-rule="evenodd" clip-rule="evenodd" d="M33.034 6.914V23.22h-8.259V6.914h8.259zM16.517.8h8.259v6.114h-8.26V.8z"/></svg><svg viewBox="0 0 31 33" id="phone-icon" xmlns="http://www.w3.org/2000/svg"><path d="M27.5 3.209C26.69 2.454 23.407.056 16.095.024c0 0-8.622-.524-12.825 3.357C.929 5.736.106 9.182.019 13.455c-.087 4.273-.199 12.28 7.47 14.451h.008l-.005 3.314s-.05 1.34.828 1.614c1.062.332 1.685-.687 2.698-1.786a86.626 86.626 0 001.903-2.167c5.245.444 9.28-.571 9.737-.721 1.06-.346 7.052-1.119 8.027-9.125 1.006-8.253-.487-13.473-3.184-15.826zm.89 15.234c-.823 6.685-5.684 7.105-6.58 7.394-.38.124-3.924 1.011-8.38.718 0 0-3.319 4.031-4.356 5.08-.162.163-.352.23-.48.197-.178-.044-.227-.257-.225-.568l.029-5.506s-.004 0 0 0c-6.488-1.812-6.11-8.627-6.036-12.196.073-3.57.74-6.493 2.718-8.459 3.556-3.24 10.88-2.757 10.88-2.757 6.184.028 9.148 1.902 9.835 2.53 2.282 1.966 3.445 6.671 2.595 13.565v.002z"/><path fill-rule="evenodd" clip-rule="evenodd" d="M16.45 10.563c.01-.257.198-.453.416-.44.819.05 1.5.34 1.984.927.483.584.72 1.4.762 2.381.01.256-.158.474-.377.487-.218.013-.405-.185-.415-.44-.036-.84-.233-1.412-.54-1.783-.305-.37-.77-.603-1.455-.645-.219-.013-.387-.232-.375-.488z"/><path fill-rule="evenodd" clip-rule="evenodd" d="M15.817 8.609c.016-.228.203-.4.417-.383 1.634.127 2.95.722 3.909 1.836.948 1.103 1.398 2.475 1.366 4.084-.005.228-.183.41-.398.405-.215-.005-.386-.194-.38-.423.028-1.42-.364-2.578-1.163-3.507-.796-.925-1.909-1.453-3.39-1.569-.215-.016-.376-.215-.36-.443z"/><path fill-rule="evenodd" clip-rule="evenodd" d="M15.184 6.113a.415.415 0 01.412-.42c2.375.018 4.383.832 5.995 2.451 1.626 1.633 2.43 3.855 2.45 6.615a.416.416 0 01-.406.425.415.415 0 01-.413-.419c-.019-2.586-.766-4.574-2.202-6.017-1.45-1.456-3.25-2.195-5.43-2.21a.416.416 0 01-.406-.425z"/><path d="M16.853 18.902s.581.05.894-.336l.61-.768c.295-.38 1.006-.624 1.701-.236.522.297 1.028.62 1.517.968.462.34 1.407 1.129 1.41 1.129.45.38.555.939.248 1.527l-.003.013a6.37 6.37 0 01-1.27 1.564c-.006.003-.006.006-.011.009-.438.365-.868.573-1.29.623a.855.855 0 01-.189.012 1.717 1.717 0 01-.548-.084l-.014-.02c-.65-.184-1.737-.643-3.546-1.641a21.13 21.13 0 01-2.98-1.968c-.468-.37-.916-.767-1.34-1.188l-.045-.046-.045-.045-.045-.045-.045-.045c-.422-.424-.818-.871-1.189-1.34a21.148 21.148 0 01-1.968-2.979c-.998-1.81-1.457-2.895-1.64-3.546l-.02-.014a1.718 1.718 0 01-.085-.548.828.828 0 01.012-.189c.052-.421.26-.852.624-1.29.003-.006.006-.006.01-.012.45-.504.978-.932 1.564-1.27l.012-.003c.589-.306 1.147-.202 1.527.246.003.003.79.948 1.128 1.41.348.49.672.996.969 1.518.388.695.145 1.407-.236 1.7l-.768.61c-.388.314-.337.895-.337.895s1.138 4.305 5.388 5.39z"/></svg><svg viewBox="0 0 19 20" id="phone2" xmlns="http://www.w3.org/2000/svg"><path fill-rule="evenodd" clip-rule="evenodd" d="M10.582 6.693c-.493-.663-.669-1.363-.112-1.98 1.249-1.748 2.089-2.829 2.616-3.35 1.002-.989 2.65-.855 3.518 0 .466.46.623.617 1.102 1.103 2.665 2.667 1.04 8.304-3.281 12.63-4.32 4.324-9.958 5.95-12.629 3.278-.441-.426-.815-.8-1.11-1.111-.85-.9-.98-2.474.006-3.498.505-.525 1.536-1.324 3.357-2.627.558-.499 1.22-.39 1.826.007.292.191.504.385.905.786l.728.729c.096.095 1.397-.556 2.661-1.821 1.265-1.266 1.916-2.568 1.82-2.663l-.728-.73a14.168 14.168 0 01-.266-.27 5.188 5.188 0 01-.413-.483zm-4.417 7.31l-.728-.729a6.5 6.5 0 00-.48-.45c-1.595 1.146-2.52 1.867-2.897 2.259-.227.235-.192.665.006.873.272.288.626.643 1.061 1.062 1.727 1.728 6.278.415 9.955-3.266 3.678-3.682 4.99-8.233 3.276-9.948a78.055 78.055 0 00-1.087-1.087c-.172-.17-.641-.208-.85-.001-.406.4-1.159 1.364-2.266 2.906.057.072.129.152.216.244.064.067.117.12.234.237l.727.728c1.238 1.238.184 3.345-1.82 5.35-2.002 2.005-4.11 3.06-5.347 1.822z"/></svg><svg viewBox="0 0 53 53" id="safety-icon" xmlns="http://www.w3.org/2000/svg"><circle cx="26.5" cy="26.5" r="26.5"/><path d="M13.796 13.102l12.876-3.075a.98.98 0 01.468.003l12.897 3.08a.996.996 0 01.763.97v13.63c0 2.947-1.625 5.745-3.887 8.104-2.885 3.01-6.854 5.342-9.7 6.306a.98.98 0 01-.627 0c-2.845-.964-6.814-3.296-9.7-6.306C14.626 33.454 13 30.657 13 27.71V14.08c0-.483.342-.886.796-.978zm13.104-1.08l-11.916 2.846V27.71c0 2.367 1.392 4.704 3.329 6.725 2.554 2.666 6.012 4.748 8.587 5.69 2.575-.942 6.033-3.024 8.587-5.69 1.938-2.02 3.33-4.358 3.33-6.725V14.868L26.9 12.022z"/><path d="M17.951 16.616l8.72-2.083a.98.98 0 01.47.003l8.741 2.088a.996.996 0 01.763.97v9.587c0 2.091-1.14 4.063-2.725 5.717-1.993 2.08-4.737 3.69-6.706 4.358a.98.98 0 01-.627 0c-1.97-.667-4.714-2.279-6.706-4.358-1.586-1.655-2.726-3.625-2.726-5.717v-9.587c0-.483.342-.887.796-.978zm8.95-.088l-7.762 1.854v8.799c0 1.511.906 3.022 2.167 4.338 1.663 1.734 3.899 3.097 5.594 3.739 1.696-.642 3.932-2.005 5.594-3.74 1.262-1.315 2.168-2.826 2.168-4.337v-8.8L26.9 16.529z"/></svg><svg viewBox="0 0 30 30" id="tel-icon" xmlns="http://www.w3.org/2000/svg"><path d="M25.091 4.405A14.378 14.378 0 0014.856.163C6.88.163.39 6.651.386 14.627a14.436 14.436 0 001.932 7.231L.265 29.353l7.67-2.01a14.464 14.464 0 006.915 1.76h.006c7.974 0 14.466-6.49 14.469-14.465a14.375 14.375 0 00-4.234-10.233zM14.856 26.66h-.005a12.01 12.01 0 01-6.121-1.676l-.44-.26-4.55 1.193 1.214-4.436-.286-.455a11.992 11.992 0 01-1.839-6.398C2.832 7.999 8.227 2.606 14.861 2.606a11.947 11.947 0 018.502 3.526 11.948 11.948 0 013.519 8.505c-.003 6.63-5.398 12.023-12.026 12.023zm6.597-9.004c-.362-.181-2.14-1.056-2.47-1.176-.332-.12-.573-.181-.814.18-.241.363-.934 1.177-1.145 1.418-.211.241-.422.271-.783.09-.362-.18-1.527-.562-2.908-1.794-1.075-.958-1.8-2.141-2.011-2.503-.21-.362-.022-.558.159-.738.162-.162.361-.422.542-.633.18-.211.24-.362.361-.603.12-.241.06-.452-.03-.633s-.813-1.96-1.114-2.684c-.294-.705-.592-.61-.814-.62-.21-.01-.452-.013-.693-.013-.24 0-.633.09-.964.452-.331.362-1.265 1.237-1.265 3.015 0 1.78 1.295 3.498 1.476 3.74.18.24 2.55 3.891 6.176 5.456a20.77 20.77 0 002.061.762c.866.275 1.654.236 2.277.143.695-.104 2.14-.874 2.44-1.718.302-.845.302-1.568.211-1.72-.09-.15-.331-.24-.692-.421z"/></svg><svg viewBox="0 0 37 20" id="transport-icon" xmlns="http://www.w3.org/2000/svg"><path fill-rule="evenodd" clip-rule="evenodd" d="M13.222 16.01a1.068 1.068 0 011.517 0 1.07 1.07 0 010 1.516 1.07 1.07 0 01-1.517 0 1.069 1.069 0 010-1.517zm18.263 0a1.068 1.068 0 011.516 0 1.07 1.07 0 010 1.516 1.07 1.07 0 01-1.516 0 1.07 1.07 0 010-1.517zM4.312 18.965A3.101 3.101 0 013.4 16.82H1.933c-.436 0-.832-.177-1.118-.464a1.577 1.577 0 01-.464-1.117V1.987c0-.436.178-.832.464-1.118A1.577 1.577 0 011.933.405h24.704c.436 0 .831.178 1.117.464.287.286.464.682.464 1.118v1.476h4.025c.436 0 .832.178 1.118.464a1.577 1.577 0 01-.003 2.238l.863 3.453a2.603 2.603 0 012.152 2.562v3.058a1.59 1.59 0 01-1.02 1.479l.001.05a3.1 3.1 0 01-.912 2.2 3.1 3.1 0 01-2.199.911 3.1 3.1 0 01-2.198-.912 3.1 3.1 0 01-.912-2.146H17.091a3.101 3.101 0 01-.912 2.146 3.101 3.101 0 01-2.198.912 3.101 3.101 0 01-2.199-.912 3.101 3.101 0 01-.911-2.146H9.62a3.101 3.101 0 01-.911 2.146 3.101 3.101 0 01-2.199.912 3.101 3.101 0 01-2.199-.912zm3.99-4.738a3.12 3.12 0 011.128 1.467h1.63a3.116 3.116 0 012.92-2.038 3.12 3.12 0 012.92 2.039h10.194V1.985a.456.456 0 00-.457-.457H1.933a.455.455 0 00-.457.457v13.252a.456.456 0 00.457.457H3.59a3.116 3.116 0 012.92-2.038 3.1 3.1 0 011.793.571zm-3.196 3.943a1.98 1.98 0 002.808 0 1.981 1.981 0 00.001-2.806 1.987 1.987 0 00-3.392 1.402c0 .547.223 1.044.583 1.404zM33.052 9.58l-.738-2.953h-4.096v2.157l1.08-1.079a.562.562 0 11.795.795l-1.08 1.08h4.04zm-.486-4.212a.455.455 0 00-.323-.78h-4.025v.915h4.025c.127 0 .24-.052.323-.134zm-19.99 12.804a1.98 1.98 0 002.807 0 1.981 1.981 0 00.002-2.806 1.986 1.986 0 10-2.81 2.805h.001zm18.263 0a1.98 1.98 0 002.808 0 1.981 1.981 0 00.001-2.806 1.987 1.987 0 00-3.392 1.401c0 .548.223 1.045.583 1.404zm3.153-3.973c.49.334.884.806 1.12 1.366a.449.449 0 00.136-.327v-2.495h-1.476a.56.56 0 01-.562-.563.56.56 0 01.562-.562h1.365a1.484 1.484 0 00-1.365-.914h-5.554v4.991h1.105a3.116 3.116 0 012.92-2.038c.642 0 1.246.198 1.75.541zm-2.656-2.416a.56.56 0 01.794 0 .56.56 0 01-.397.96.56.56 0 01-.397-.96zM5.752 16.01a1.068 1.068 0 011.516 0 1.069 1.069 0 01-.758 1.83 1.07 1.07 0 01-1.073-1.072c0-.296.12-.565.314-.758z"/><path d="M5.808 6.807v3.46c0 .149.052.275.155.378a.522.522 0 00.379.156.51.51 0 00.375-.156.516.516 0 00.155-.378v-3.46h1.132a.522.522 0 00.378-.155.51.51 0 00.156-.375.51.51 0 00-.156-.375.516.516 0 00-.378-.159H4.679a.51.51 0 00-.378.159.512.512 0 00-.155.375.51.51 0 00.155.375c.104.103.23.155.378.155h1.129zm6.778.801a.769.769 0 01-.236.564.768.768 0 01-.564.233h-1.463V6.807h1.463c.22 0 .408.08.564.237a.763.763 0 01.236.564zm-1.02 1.862l1.175 1.175a.51.51 0 00.375.156.522.522 0 00.379-.156.515.515 0 00.155-.378.51.51 0 00-.155-.375l-.713-.713c.265-.169.475-.39.628-.662.16-.282.24-.584.24-.909 0-.513-.182-.952-.547-1.317a1.796 1.796 0 00-1.317-.548H9.792a.51.51 0 00-.378.159.51.51 0 00-.155.375v3.99c0 .149.051.275.155.378.103.104.23.156.378.156a.51.51 0 00.375-.156.514.514 0 00.156-.378V9.47h1.243zm3.288-3.693a.515.515 0 00-.253.193.52.52 0 00-.098.307v3.99c0 .149.051.275.155.379.104.103.23.155.379.155a.51.51 0 00.374-.155.514.514 0 00.156-.379v-2.52l2.385 2.861a.506.506 0 00.408.193.51.51 0 00.436-.226.52.52 0 00.098-.308v-3.99a.509.509 0 00-.155-.375.516.516 0 00-.379-.158.505.505 0 00-.374.159.512.512 0 00-.156.374v2.52l-2.385-2.86a.525.525 0 00-.27-.173.522.522 0 00-.32.014zm5.427 3.96a.514.514 0 00-.378.155.51.51 0 00-.156.375c0 .149.052.275.156.378.103.104.23.156.378.156h2.328c.421 0 .781-.15 1.08-.45.3-.299.45-.66.45-1.08 0-.422-.15-.782-.45-1.081-.3-.3-.659-.45-1.08-.45h-1.331a.445.445 0 01-.328-.135.453.453 0 01-.138-.331.44.44 0 01.138-.328c.09-.092.2-.138.328-.138h2.327a.522.522 0 00.379-.156.512.512 0 00.155-.375.51.51 0 00-.155-.375.516.516 0 00-.379-.158h-2.327c-.421 0-.782.15-1.081.45-.3.299-.45.659-.45 1.08 0 .423.15.784.45 1.081.3.3.66.45 1.08.45h1.332a.44.44 0 01.327.138c.093.09.139.199.139.327a.453.453 0 01-.139.332c-.09.09-.199.135-.327.135H20.28z"/></svg><svg viewBox="0 0 15 13" id="tw-icon" xmlns="http://www.w3.org/2000/svg"><path fill-rule="evenodd" clip-rule="evenodd" d="M13.08 2.006l.943.11-.424.85-.621 1.243a.982.982 0 01-.132.264c-.026.042-.117.175-.122.182a1.381 1.381 0 00-.054.087v1.593c0 4.074-3.944 6.663-7.668 6.663-.762 0-1.34-.036-2.004-.18-1.09-.239-1.903-.712-2.274-1.54l-.383-.85.93-.086c.84-.078 1.57-.238 2.13-.452-1.537-.248-2.399-.923-2.399-2.19v-.667h.667c.146 0 .279-.012.397-.034C.912 6.31.334 5.203.334 3.668v-.136C.329 2.76.37 2.345.583 1.818c.135-.338.331-.651.596-.938l.503-.547.489.56c1.612 1.842 3.205 2.96 4.832 3.094.007-1.7 1.291-2.986 3-2.986.796 0 1.519.303 2.087.848.31.064.64.116.99.157zm-1.474 1.102l-.205-.046-.14-.155c-.342-.374-.77-.572-1.258-.572-.976 0-1.667.694-1.667 1.666 0 .159-.004.259-.024.39-.079.523-.372.944-.976.944-1.999 0-3.802-1.071-5.56-2.9-.09.276-.112.559-.11 1.09l.001.143c0 1.365.554 2.112 1.863 2.528l.465.148v.488c0 .591-.56 1.148-1.38 1.397.376.285 1.144.439 2.388.439h.666v.667c0 .955-1.097 1.702-2.755 2.093.54.166 1.26.237 2.088.237 3.077 0 6.334-2.139 6.334-5.33V4.668c0-.196.057-.366.151-.543.037-.069.078-.135.128-.21l.072-.106.053-.106.257-.514a11.2 11.2 0 01-.391-.08z"/></svg><svg viewBox="0 0 30 25" id="work-icon" xmlns="http://www.w3.org/2000/svg"><path fill-rule="evenodd" clip-rule="evenodd" d="M3.355 5.576c-.862 0-1.57.708-1.57 1.57v14.776c0 .862.708 1.57 1.57 1.57h22.733c.862 0 1.57-.708 1.57-1.57V7.146c0-.862-.708-1.57-1.57-1.57H3.355zM.378 7.146a2.983 2.983 0 012.977-2.977h22.733a2.983 2.983 0 012.977 2.977v14.776a2.983 2.983 0 01-2.977 2.977H3.355a2.983 2.983 0 01-2.977-2.977V7.146z"/><path fill-rule="evenodd" clip-rule="evenodd" d="M3.355 5.576c-.862 0-1.57.708-1.57 1.57v.682a5.409 5.409 0 005.435 5.434h2.693a.703.703 0 110 1.407H7.22A6.815 6.815 0 01.378 7.828v-.682A2.983 2.983 0 013.355 4.17h22.733a2.983 2.983 0 012.977 2.977v.682a6.815 6.815 0 01-6.841 6.841h-2.775a.703.703 0 010-1.407h2.775a5.409 5.409 0 005.434-5.434v-.682c0-.862-.708-1.57-1.57-1.57H3.355zM17.847 3.363c-.693-.987-1.807-1.593-3.118-1.578h-.008a3.801 3.801 0 00-3.144 1.638.703.703 0 01-1.152-.807A5.208 5.208 0 0114.717.379c1.78-.02 3.325.815 4.281 2.176a.703.703 0 11-1.151.808z"/><path fill-rule="evenodd" clip-rule="evenodd" d="M14.722 8.839a2.192 2.192 0 100 4.385 2.192 2.192 0 000-4.385zm-3.658 2.192a3.658 3.658 0 117.316 0 3.658 3.658 0 01-7.316 0z"/><path fill-rule="evenodd" clip-rule="evenodd" d="M14.722 14.69a2.61 2.61 0 100 5.22 2.61 2.61 0 000-5.22zm-4.076 2.61a4.076 4.076 0 118.151 0 4.076 4.076 0 01-8.151 0z"/></svg></svg>