<svg width="756" height="317" viewBox="0 0 756 317" fill="none" xmlns="http://www.w3.org/2000/svg">
<path d="M390.401 108.686H552.032" stroke="#074F79" stroke-width="4" stroke-miterlimit="10" stroke-linecap="round" stroke-linejoin="round"/>
<path d="M609.62 71.3898L576.701 109.966C575.179 111.727 574.298 113.808 573.978 116.129L572.856 125.173H218.117C217.397 125.173 216.836 124.613 216.836 123.892V112.127C216.836 112.047 216.836 111.887 216.756 111.887L201.858 72.8304C200.577 69.3889 203.06 65.7874 206.744 65.7874H219.239C219.96 65.7874 220.52 65.2271 220.52 64.5068V34.0937C220.52 33.3734 221.081 32.8132 221.802 32.8132H232.775C233.496 32.8132 234.056 32.2529 234.056 31.5326V25.5301C234.056 24.8097 234.617 24.2495 235.338 24.2495H241.345C242.066 24.2495 242.626 24.8097 242.626 25.5301V31.5326C242.626 32.2529 243.187 32.8132 243.908 32.8132H284.756C285.477 32.8132 286.038 33.3734 286.038 34.0937V64.5068C286.038 65.2271 286.598 65.7874 287.319 65.7874H296.29C296.93 65.7874 297.491 66.2676 297.491 66.9078C298.052 72.9104 303.178 77.6324 309.345 77.6324H533.29C539.457 77.6324 544.583 72.9104 545.144 66.9078C545.224 66.2676 545.704 65.7874 546.345 65.7874H606.896C609.62 65.7073 611.302 68.9887 609.62 71.3898Z" stroke="#074F79" stroke-width="4" stroke-miterlimit="10" stroke-linejoin="round"/>
<path d="M594.013 75.3916C594.013 76.8991 592.79 78.1235 591.278 78.1235C589.766 78.1235 588.543 76.8991 588.543 75.3916C588.543 73.884 589.766 72.6597 591.278 72.6597C592.79 72.6597 594.013 73.884 594.013 75.3916Z" stroke="#074F79" stroke-width="3.5"/>
<path d="M403.616 58.9846H368.134C367.173 58.9846 366.452 59.785 366.452 60.6653V72.9907C366.452 73.9511 367.253 74.6714 368.134 74.6714H403.616C404.578 74.6714 405.298 73.871 405.298 72.9907V60.6653C405.378 59.785 404.578 58.9846 403.616 58.9846ZM361.487 40.6567H326.005C325.044 40.6567 324.323 41.4571 324.323 42.3375V54.6628C324.323 55.6232 325.124 56.3435 326.005 56.3435H361.487C362.448 56.3435 363.169 55.5431 363.169 54.6628V42.3375C363.169 41.3771 362.448 40.6567 361.487 40.6567ZM403.616 40.6567H368.134C367.173 40.6567 366.452 41.4571 366.452 42.3375V54.6628C366.452 55.6232 367.253 56.3435 368.134 56.3435H403.616C404.578 56.3435 405.298 55.5431 405.298 54.6628V42.3375C405.378 41.3771 404.578 40.6567 403.616 40.6567ZM361.487 58.9846H326.005C325.044 58.9846 324.323 59.785 324.323 60.6653V72.9907C324.323 73.9511 325.124 74.6714 326.005 74.6714H361.487C362.448 74.6714 363.169 73.871 363.169 72.9907V60.6653C363.169 59.785 362.448 58.9846 361.487 58.9846ZM519.994 40.6567H502.773C501.812 40.6567 501.092 41.4571 501.092 42.3375V72.9907C501.092 73.9511 501.892 74.6714 502.773 74.6714H519.994C520.955 74.6714 521.676 73.871 521.676 72.9907V42.3375C521.676 41.3771 520.955 40.6567 519.994 40.6567ZM495.485 40.6567H478.265C477.303 40.6567 476.583 41.4571 476.583 42.3375V72.9907C476.583 73.9511 477.384 74.6714 478.265 74.6714H495.485C496.446 74.6714 497.167 73.871 497.167 72.9907V42.3375C497.167 41.3771 496.446 40.6567 495.485 40.6567ZM470.736 40.6567H453.515C452.554 40.6567 451.833 41.4571 451.833 42.3375V72.9907C451.833 73.9511 452.634 74.6714 453.515 74.6714H470.736C471.697 74.6714 472.418 73.871 472.418 72.9907V42.3375C472.498 41.3771 471.697 40.6567 470.736 40.6567ZM445.986 40.6567H410.505C409.543 40.6567 408.823 41.4571 408.823 42.3375V54.6628C408.823 55.6232 409.623 56.3435 410.505 56.3435H445.986C446.948 56.3435 447.668 55.5431 447.668 54.6628V42.3375C447.668 41.3771 446.867 40.6567 445.986 40.6567ZM445.986 58.9846H410.505C409.543 58.9846 408.823 59.785 408.823 60.6653V72.9907C408.823 73.9511 409.623 74.6714 410.505 74.6714H445.986C446.948 74.6714 447.668 73.871 447.668 72.9907V60.6653C447.668 59.785 446.867 58.9846 445.986 58.9846Z" fill="#074F79"/>
<path d="M280.111 38.4961H273.623V44.9789H280.111V38.4961Z" stroke="#074F79" stroke-width="4" stroke-miterlimit="10" stroke-linejoin="round"/>
<path d="M270.019 38.4961H263.531V44.9789H270.019V38.4961Z" stroke="#074F79" stroke-width="4" stroke-miterlimit="10" stroke-linejoin="round"/>
<path d="M260.007 38.6558H253.52V45.1385H260.007V38.6558Z" stroke="#074F79" stroke-width="4" stroke-miterlimit="10" stroke-linejoin="round"/>
<path d="M249.995 38.6558H243.507V45.1385H249.995V38.6558Z" stroke="#074F79" stroke-width="4" stroke-miterlimit="10" stroke-linejoin="round"/>
<path d="M214.834 65.7075H271.701" stroke="#074F79" stroke-width="4" stroke-miterlimit="10" stroke-linecap="round" stroke-linejoin="round"/>
<path d="M599.768 148.303L595.523 145.742C591.118 143.1 585.672 143.02 581.186 145.582L580.305 146.062C575.74 148.623 570.213 148.543 565.728 145.742C561.403 143.1 556.037 142.86 551.551 145.261L549.469 146.382C544.983 148.783 539.617 148.543 535.292 145.902L535.132 145.822C530.807 143.1 525.36 142.94 520.875 145.422" stroke="#074F79" stroke-width="4" stroke-miterlimit="10" stroke-linecap="round" stroke-linejoin="round"/>
<path d="M753.893 169.105L749.648 166.544C745.243 163.903 739.797 163.823 735.311 166.384L734.43 166.864C729.865 169.425 724.338 169.345 719.853 166.544C715.528 163.903 710.162 163.663 705.676 166.064L703.594 167.184C699.108 169.585 693.742 169.345 689.417 166.704L689.257 166.624C684.932 163.903 679.485 163.743 675 166.224" stroke="#074F79" stroke-width="4" stroke-miterlimit="10" stroke-linecap="round" stroke-linejoin="round"/>
<path d="M80.8931 126.105L76.6481 123.544C72.2429 120.903 66.7965 120.823 62.3112 123.384L61.4302 123.864C56.8648 126.425 51.3383 126.345 46.853 123.544C42.5278 120.903 37.1616 120.663 32.6763 123.064L30.5938 124.184C26.1085 126.585 20.7421 126.345 16.417 123.704L16.2569 123.624C11.9318 120.903 6.4853 120.743 2 123.224" stroke="#074F79" stroke-width="4" stroke-miterlimit="10" stroke-linecap="round" stroke-linejoin="round"/>
<path d="M650.782 225.507L648.319 223.816C645.762 222.073 642.602 222.02 639.999 223.711L639.488 224.028C636.838 225.719 633.631 225.666 631.028 223.816C628.519 222.073 625.404 221.914 622.802 223.499L621.593 224.239C618.99 225.824 615.876 225.666 613.366 223.922L613.273 223.869C610.763 222.073 607.603 221.967 605 223.605" stroke="#074F79" stroke-width="4" stroke-miterlimit="10" stroke-linecap="round" stroke-linejoin="round"/>
<path d="M326.159 153.36L321.914 150.799C317.509 148.158 312.063 148.078 307.577 150.639L306.696 151.119C302.131 153.68 296.604 153.6 292.119 150.799C287.794 148.158 282.428 147.918 277.942 150.319L275.86 151.439C271.375 153.84 266.008 153.6 261.683 150.959L261.523 150.879C257.198 148.158 251.751 147.998 247.266 150.479" stroke="#074F79" stroke-width="4" stroke-miterlimit="10" stroke-linecap="round" stroke-linejoin="round"/>
<path d="M466.893 314.105L462.648 311.544C458.243 308.903 452.797 308.823 448.311 311.384L447.43 311.864C442.865 314.425 437.338 314.345 432.853 311.544C428.528 308.903 423.162 308.663 418.676 311.064L416.594 312.184C412.108 314.585 406.742 314.345 402.417 311.704L402.257 311.624C397.932 308.903 392.485 308.743 388 311.224" stroke="#074F79" stroke-width="4" stroke-miterlimit="10" stroke-linecap="round" stroke-linejoin="round"/>
<path d="M444.882 188.278L440.637 185.717C436.232 183.076 430.786 182.996 426.301 185.557L425.419 186.037C420.854 188.598 415.328 188.518 410.842 185.717C406.517 183.076 401.151 182.836 396.666 185.237L394.583 186.357C390.098 188.759 384.731 188.518 380.406 185.877L380.246 185.797C375.921 183.076 370.475 182.916 365.989 185.397" stroke="#074F79" stroke-width="4" stroke-miterlimit="10" stroke-linecap="round" stroke-linejoin="round"/>
<path d="M506.893 200.105L502.648 197.544C498.243 194.903 492.797 194.823 488.311 197.384L487.43 197.864C482.865 200.425 477.338 200.345 472.853 197.544C468.528 194.903 463.162 194.663 458.676 197.064L456.594 198.184C452.108 200.585 446.742 200.345 442.417 197.704L442.257 197.624C437.932 194.903 432.485 194.743 428 197.224" stroke="#074F79" stroke-width="4" stroke-miterlimit="10" stroke-linecap="round" stroke-linejoin="round"/>
<path d="M632.782 237.731L630.319 236.463C627.762 235.155 624.602 235.116 621.999 236.384L621.488 236.622C618.838 237.89 615.631 237.85 613.028 236.463C610.519 235.155 607.404 235.037 604.802 236.225L603.593 236.78C600.99 237.969 597.876 237.85 595.366 236.542L595.273 236.503C592.763 235.155 589.603 235.076 587 236.305" stroke="#074F79" stroke-width="4" stroke-miterlimit="10" stroke-linecap="round" stroke-linejoin="round"/>
<path d="M506.618 145.182C502.213 142.541 496.767 142.461 492.281 145.022L491.4 145.502C486.835 148.063 481.308 147.983 476.823 145.182C472.498 142.541 467.132 142.301 462.646 144.702L460.564 145.822" stroke="#074F79" stroke-width="4" stroke-miterlimit="10" stroke-linecap="round" stroke-linejoin="round"/>
<path d="M572.696 125.093C574.939 125.013 577.182 124.373 579.184 123.252L580.065 122.772C584.63 120.211 590.157 120.291 594.642 123.092C598.967 125.733 604.334 125.973 608.819 123.572L610.901 122.452" stroke="#074F79" stroke-width="4" stroke-miterlimit="10" stroke-linecap="round" stroke-linejoin="round"/>
<path d="M253.52 2V32.413" stroke="#074F79" stroke-width="4" stroke-miterlimit="10" stroke-linecap="round" stroke-linejoin="round"/>
<path d="M668.81 123.252L629.804 123.092C627.161 123.092 624.518 122.532 621.955 121.651C618.271 120.371 614.186 120.691 610.662 122.532L608.579 123.652" stroke="#074F79" stroke-width="4" stroke-miterlimit="10" stroke-linecap="round" stroke-linejoin="round"/>
<path d="M208.28 124.415C203.875 121.774 198.428 121.694 193.943 124.255L193.062 124.736C188.497 127.297 182.97 127.217 178.485 124.415C174.16 121.774 168.793 121.534 164.308 123.935L162.226 125.056C157.74 127.457 152.374 127.217 148.049 124.576L147.889 124.495C144.285 122.255 139.879 121.774 135.955 123.055C133.712 123.775 131.389 124.015 129.067 124.015H99.832" stroke="#074F79" stroke-width="4" stroke-miterlimit="10" stroke-linecap="round" stroke-linejoin="round"/>
<path d="M187.215 141.783L186.334 142.263C181.769 144.824 176.242 144.744 171.757 141.943C167.432 139.302 162.065 139.062 157.58 141.463C156.219 142.183 154.697 142.584 153.175 142.584H126.263" stroke="#074F79" stroke-width="4" stroke-miterlimit="10" stroke-linecap="round" stroke-linejoin="round"/>
</svg>
