<svg width="53" height="53" viewBox="0 0 53 53" fill="none" xmlns="http://www.w3.org/2000/svg">
<circle cx="26.5" cy="26.5" r="26.5" fill="#0A6397"/>
<path d="M26.6864 12.8105C30.7414 12.8105 34.4133 14.4638 37.0707 17.1365C39.7282 19.8093 41.3723 23.5014 41.3723 27.5794C41.3723 31.6575 39.7282 35.35 37.0707 38.0224C34.4133 40.6948 30.7414 42.3483 26.6864 42.3483C22.6309 42.3483 18.959 40.6951 16.3018 38.0227C13.6444 35.3503 12 31.6578 12 27.5798C12 23.5017 13.644 19.8093 16.3018 17.1369C18.9596 14.4644 22.6312 12.8112 26.6864 12.8112V12.8105ZM35.6683 18.5468C33.3699 16.2355 30.1939 14.8056 26.6864 14.8056C23.1784 14.8056 20.0027 16.2355 17.704 18.5465C15.4055 20.8579 13.9836 24.0517 13.9836 27.5794C13.9836 31.1072 15.4055 34.3007 17.704 36.6124C20.0024 38.9237 23.1784 40.3533 26.6864 40.3533C30.1939 40.3533 33.3699 38.9234 35.6683 36.612C37.9668 34.3007 39.3884 31.1072 39.3884 27.5794C39.3884 24.052 37.9665 20.8582 35.6683 18.5468Z" fill="white" stroke="#0A6397" stroke-width="0.6"/>
<path d="M24.1105 9.99524C23.5626 9.99524 23.1187 9.54844 23.1187 8.99786C23.1187 8.44698 23.563 8.00049 24.1105 8.00049H29.262C29.8098 8.00049 30.2538 8.44729 30.2538 8.99786C30.2538 9.54875 29.8095 9.99524 29.262 9.99524H24.1105Z" fill="white" stroke="#0A6397" stroke-width="0.6"/>
<path d="M27.6782 11.1689C27.6782 11.7198 27.2339 12.1663 26.6864 12.1663C26.1386 12.1663 25.6946 11.7195 25.6946 11.1689V8.99737C25.6946 8.44649 26.1389 8 26.6864 8C27.2342 8 27.6782 8.4468 27.6782 8.99737V11.1689Z" fill="white" stroke="#0A6397" stroke-width="0.6"/>
<path d="M25.6944 20.7928C25.6944 20.2419 26.1387 19.7954 26.6862 19.7954C27.234 19.7954 27.678 20.2422 27.678 20.7928V26.5816H31.5581C32.1059 26.5816 32.5499 27.0284 32.5499 27.579C32.5499 28.1299 32.1056 28.5763 31.5581 28.5763H26.6859C26.1381 28.5763 25.6941 28.1295 25.6941 27.579V20.7925L25.6944 20.7928Z" fill="white" stroke="#0A6397" stroke-width="0.6"/>
<path d="M35.3677 30.2185C35.5238 29.6915 36.0756 29.3914 36.5996 29.5483C37.1236 29.7052 37.4221 30.2601 37.2661 30.7871C36.5619 33.1329 35.1342 35.1093 33.2732 36.4991C31.4116 37.8896 29.1194 38.6931 26.6862 38.6931C23.6348 38.6931 20.8716 37.449 18.8716 35.4378C16.8717 33.4266 15.6345 30.6479 15.6345 27.5793C15.6345 25.2164 16.381 22.9793 17.6833 21.1383C18.9829 19.3014 20.8407 17.8601 23.066 17.0836C23.5813 16.9053 24.1437 17.1805 24.3213 17.6991C24.4987 18.2174 24.2249 18.7829 23.7092 18.9615C21.8875 19.5972 20.3637 20.781 19.2949 22.292C18.2293 23.7986 17.6184 25.6346 17.6184 27.58C17.6184 30.0982 18.6337 32.3785 20.2741 34.0281C21.9147 35.6779 24.182 36.6986 26.6862 36.6986C28.689 36.6986 30.5712 36.0408 32.0954 34.9024C33.6199 33.7637 34.7903 32.1433 35.3677 30.2188V30.2185Z" fill="white" stroke="#0A6397" stroke-width="0.6"/>
<path d="M26.6864 18.4601C26.1386 18.4601 25.6946 18.0133 25.6946 17.4627C25.6946 16.9118 26.1389 16.4653 26.6864 16.4653C29.7292 16.4653 32.4871 17.7051 34.487 19.7104C36.4858 21.7144 37.7257 24.4856 37.7344 27.5502C37.7344 28.0989 37.2919 28.5438 36.7463 28.5438C36.2006 28.5438 35.7582 28.0989 35.7582 27.5502C35.7514 25.039 34.733 22.7662 33.092 21.1207C31.4526 19.4764 29.1878 18.4601 26.6864 18.4601Z" fill="white" stroke="#0A6397" stroke-width="0.6"/>
</svg>
