<?xml version="1.0" encoding="utf-8"?><svg viewBox="0 0 756 317" xmlns="http://www.w3.org/2000/svg" xmlns:xlink="http://www.w3.org/1999/xlink"><style>:root>svg{display:none}:root>svg:target{display:block}</style><svg fill="none" viewBox="0 0 56 56" id="belay" xmlns="http://www.w3.org/2000/svg"><path fill-rule="evenodd" clip-rule="evenodd" d="M17.405 14.325c0-.388.315-.703.704-.703H33.57c.187 0 .365.074.497.206l5.609 5.608c.132.132.206.31.206.497v4.837a.703.703 0 01-1.407 0v-4.546l-5.196-5.195H18.812v27.778h20.366a.703.703 0 110 1.407h-21.07a.703.703 0 01-.703-.703V14.325z" fill="#003C5F"/><path d="M32.87 14.325c0-.388.313-.703.7-.703.388 0 .702.315.702.703H32.87zm0 5.608v-5.608h1.401v5.608H32.87zm1.401 0a.702.702 0 01-.7.704.703.703 0 01-.702-.704h1.402z" fill="#003C5F"/><path fill-rule="evenodd" clip-rule="evenodd" d="M32.867 19.933c0-.389.315-.703.703-.703h5.608a.703.703 0 110 1.406H33.57a.703.703 0 01-.703-.703zM32.751 28.794v5.93c0 1.14.772 2.35 1.96 3.425 1.087.984 2.403 1.746 3.41 2.128 1.006-.382 2.322-1.144 3.408-2.128 1.189-1.076 1.96-2.285 1.96-3.425v-5.93c-1.8-.814-3.586-1.196-5.365-1.186h-.008c-1.778-.01-3.565.371-5.365 1.186zm-.703-.447l-.308-.633c2.113-1.028 4.242-1.525 6.38-1.513 2.139-.012 4.268.485 6.38 1.513a.703.703 0 01.397.633v6.377c0 1.743-1.139 3.305-2.424 4.468-1.304 1.181-2.905 2.086-4.128 2.498a.704.704 0 01-.45 0c-1.222-.412-2.823-1.317-4.128-2.498-1.284-1.163-2.423-2.725-2.423-4.468v-6.377h.704z" fill="#003C5F"/><path fill-rule="evenodd" clip-rule="evenodd" d="M41.642 31.181a.703.703 0 010 .995l-3.204 3.204a.703.703 0 01-.995 0L35.8 33.738a.703.703 0 01.995-.995l1.144 1.145 2.707-2.707a.703.703 0 01.995 0z" fill="#003C5F"/><path d="M22.216 20.464c.47 0 .87-.166 1.2-.497a.346.346 0 00.105-.254.343.343 0 00-.104-.252.343.343 0 00-.252-.104c-.1 0-.185.035-.254.104a.947.947 0 01-.695.289.946.946 0 01-.694-.289.947.947 0 01-.288-.694.95.95 0 01.288-.697.947.947 0 01.694-.288c.27 0 .502.096.695.288.07.071.154.107.254.107a.34.34 0 00.252-.107.343.343 0 00.104-.252.343.343 0 00-.104-.252 1.632 1.632 0 00-1.2-.499c-.47 0-.87.167-1.201.5a1.63 1.63 0 00-.497 1.2c0 .469.165.87.497 1.2.331.332.731.498 1.2.498v-.001zm2.654-3.29a.36.36 0 00-.39-.08.359.359 0 00-.22.331v2.68c0 .1.034.185.103.255.07.07.155.104.255.104a.344.344 0 00.251-.104.346.346 0 00.105-.255v-1.818l.73.73c.07.07.154.105.252.105.1 0 .184-.035.254-.104l.73-.73v1.817c0 .1.035.185.105.255.07.07.154.104.252.104a.344.344 0 00.252-.104.343.343 0 00.107-.255v-2.68a.35.35 0 00-.061-.2.356.356 0 00-.55-.052l-1.09 1.088-1.087-1.088h.002zm5.99 1.145a.517.517 0 01-.16.38.516.516 0 01-.379.156h-.982v-1.073h.982c.148 0 .275.053.38.159.105.104.158.23.158.379zm-.686 1.25l.79.79c.07.07.153.105.251.105a.35.35 0 00.254-.104.346.346 0 00.105-.255.343.343 0 00-.105-.252l-.479-.478c.18-.114.32-.262.423-.445.107-.19.16-.393.16-.61 0-.346-.122-.64-.367-.886a1.206 1.206 0 00-.885-.368h-1.339c-.1 0-.184.036-.254.107a.343.343 0 00-.104.252v2.68c0 .1.035.185.104.254.07.07.154.104.254.104a.343.343 0 00.252-.104.346.346 0 00.104-.254v-.536h.835zM26.5 25.023c-.311 0-.564-.316-.564-.707 0-.39.252-.707.563-.707v1.414zm7.7 0h-7.7v-1.414h7.7v1.414zm0-1.414c.31 0 .562.317.562.707 0 .39-.252.707-.563.707v-1.414zM21.413 25.021a.705.705 0 010-1.41v1.41zm2.028 0h-2.028v-1.41h2.028v1.41zm0-1.41a.705.705 0 010 1.41v-1.41z" fill="#003C5F"/><path fill-rule="evenodd" clip-rule="evenodd" d="M25.796 27.56c0-.389.315-.704.704-.704h2.652a.703.703 0 010 1.407H26.5a.703.703 0 01-.704-.703z" fill="#003C5F"/><path d="M21.412 28.263a.704.704 0 010-1.407v1.407zm2.028 0h-2.028v-1.407h2.028v1.407zm0-1.407a.704.704 0 010 1.408v-1.407z" fill="#003C5F"/><path fill-rule="evenodd" clip-rule="evenodd" d="M25.796 30.803c0-.388.315-.703.704-.703h2.735a.703.703 0 110 1.407H26.5a.703.703 0 01-.704-.704z" fill="#003C5F"/><path d="M21.412 31.506a.704.704 0 010-1.407v1.407zm2.028 0h-2.028V30.1h2.028v1.406zm0-1.406a.704.704 0 010 1.407V30.1zM21.412 37.989a.702.702 0 01-.703-.7c0-.385.315-.698.703-.698v1.397zm7.976 0h-7.976V36.59h7.976v1.398zm0-1.398c.389 0 .704.313.704.7a.702.702 0 01-.704.698v-1.397z" fill="#003C5F"/><path fill-rule="evenodd" clip-rule="evenodd" d="M25.796 34.047c0-.389.315-.704.704-.704h2.735a.703.703 0 110 1.407H26.5a.703.703 0 01-.704-.703z" fill="#003C5F"/><path d="M21.412 34.75a.704.704 0 010-1.407V34.75zm2.028 0h-2.028v-1.407h2.028v1.407zm0-1.407a.704.704 0 010 1.407v-1.406z" fill="#003C5F"/><path fill-rule="evenodd" clip-rule="evenodd" d="M28 54c14.36 0 26-11.64 26-26S42.36 2 28 2 2 13.64 2 28s11.64 26 26 26zm0 2c15.464 0 28-12.536 28-28S43.464 0 28 0 0 12.536 0 28s12.536 28 28 28z" fill="#008DD2"/></svg><svg fill="none" viewBox="0 0 56 56" id="belay2" xmlns="http://www.w3.org/2000/svg"><path fill-rule="evenodd" clip-rule="evenodd" d="M12.865 21.163a3.767 3.767 0 013.758-3.758h23.001c.89 0 1.712.314 2.356.835a.703.703 0 01-.884 1.094 2.332 2.332 0 00-1.472-.522H16.623a2.36 2.36 0 00-2.351 2.35v13.97a2.36 2.36 0 002.35 2.351h23.002c.624 0 1.194-.246 1.618-.65a.703.703 0 11.97 1.018 3.744 3.744 0 01-2.588 1.039H16.623a3.767 3.767 0 01-3.758-3.758v-13.97z" fill="#003C5F"/><path d="M22.688 22.85v-1.405l.182.005.18.014.177.022.174.032.172.04.168.048.165.056.161.064.158.072.152.079.148.086.144.092.138.1.134.106.128.112.123.118.116.124.111.13.105.133.098.14.092.145.085.149.078.153.07.158.064.162.056.165.047.17.04.171.03.175.023.178.013.18.005.182h-1.407l-.002-.112-.009-.11-.013-.108-.019-.107-.024-.104-.029-.102-.034-.1-.038-.098-.042-.096-.048-.093-.051-.09-.056-.088-.06-.084-.063-.082-.067-.078-.07-.076-.075-.07-.078-.068-.08-.064-.084-.06-.086-.056-.09-.052-.091-.047-.094-.043-.096-.039-.099-.034-.1-.029-.103-.023-.105-.02-.106-.013-.108-.008-.11-.003zm-2.13 2.156H19.15l.005-.182.014-.18.022-.178.03-.175.04-.172.048-.17.055-.165.064-.162.07-.157.078-.154.085-.149.092-.144.098-.14.105-.134.11-.13.118-.123.122-.118.129-.112.133-.106.139-.099.143-.093.148-.086.153-.08.157-.07.162-.065.164-.056.169-.048.172-.04.174-.032.178-.023.18-.014.181-.004v1.404l-.11.004-.108.008-.106.013-.105.02-.102.023-.1.03-.1.033-.096.038-.094.043-.092.048-.09.051-.085.057-.084.06-.081.064-.077.067-.075.071-.07.076-.068.078-.063.082-.06.084-.055.088-.052.09-.047.093-.043.096-.038.098-.034.1-.029.102-.024.104-.019.107-.013.108-.008.11-.003.113v-.002zm2.13 2.157v1.404l-.181-.004-.18-.014-.178-.023-.174-.032-.172-.04-.169-.048-.165-.056-.161-.064-.157-.072-.152-.079-.148-.086-.144-.093-.139-.1-.133-.105-.129-.112-.122-.118-.117-.123-.11-.13-.106-.134-.098-.14-.092-.145-.085-.149-.078-.153-.07-.158-.064-.162-.055-.165-.048-.169-.04-.172-.03-.175-.022-.177-.014-.18-.005-.183h1.407l.003.112.008.11.013.109.02.106.023.104.03.102.033.1.038.099.043.095.047.093.052.09.055.088.06.085.063.081.068.078.07.076.075.07.077.068.081.064.084.06.086.057.09.051.091.048.094.043.097.038.098.034.101.03.102.023.105.019.106.013.108.008.11.004v-.001zm2.131-2.157h1.407l-.005.182-.013.18-.022.178-.031.175-.04.172-.047.17-.056.164-.063.162-.07.158-.079.153-.085.15-.092.144-.098.14-.105.134-.11.13-.117.123-.123.118-.128.112-.134.106-.138.1-.144.092-.148.087-.152.079-.157.071-.162.064-.165.056-.168.049-.172.04-.174.031-.177.023-.18.014-.182.005v-1.405l.11-.003.108-.008.107-.014.105-.019.102-.023.1-.03.1-.033.096-.039.093-.043.092-.047.09-.052.086-.056.084-.06.08-.064.077-.067.075-.071.07-.076.068-.078.063-.081.06-.085.055-.087.052-.09.047-.094.043-.095.038-.098.034-.1.029-.103.024-.104.018-.106.014-.109.008-.11.003-.112zM29.9 24.459a.703.703 0 010-1.407v1.406zm3.993 0H29.9v-1.407h3.993v1.407zm0-1.407a.703.703 0 010 1.407v-1.407zM29.9 28.71a.703.703 0 010-1.407v1.406zm3.895 0H29.9v-1.407h3.895v1.406zm0-1.407a.703.703 0 010 1.407v-1.407zM28.158 34.148a.704.704 0 01-1.407 0h1.407zm0-1.29v1.29h-1.406v-1.29h1.406zm-3.77-2.364v-1.407l.192.005.192.014.188.024.186.034.182.042.18.051.175.06.171.068.167.075.162.084.158.091.153.098.148.105.142.112.137.119.13.124.125.131.119.137.112.142.105.148.098.153.091.158.084.162.076.168.068.171.06.176.05.179.043.182.033.186.024.188.015.191.004.193h-1.406l-.003-.121-.01-.12-.015-.118-.02-.116-.027-.113-.032-.112-.037-.109-.042-.107-.048-.104-.053-.102-.057-.1-.062-.095-.065-.093-.071-.09-.075-.086-.079-.083-.082-.079-.087-.075-.09-.07-.092-.067-.096-.061-.099-.058-.102-.052-.105-.048-.107-.042-.109-.037-.111-.032-.114-.026-.115-.021-.118-.015-.12-.01-.121-.003zm-3.401-1.407h3.4v1.407h-3.4v-1.407zm-2.364 3.771h-1.407l.005-.193.014-.191.024-.189.033-.185.043-.183.05-.179.06-.175.069-.172.076-.166.083-.163.09-.158.1-.153.105-.148.112-.141.118-.137.125-.131.13-.125.138-.118.141-.112.148-.105.154-.099.157-.09.163-.084.167-.076.171-.068.175-.06.18-.05.182-.043.186-.033.188-.024.19-.015.194-.004v1.406l-.121.003-.12.01-.118.015-.115.02-.114.027-.111.032-.11.037-.106.042-.105.048-.102.052-.1.058-.095.061-.093.066-.09.071-.086.075-.082.079-.08.082-.074.087-.07.09-.067.092-.061.096-.057.099-.053.102-.048.105-.042.107-.037.109-.032.111-.026.114-.021.115-.015.118-.01.12-.003.121zm-1.407 1.29v-1.29h1.407v1.29h-1.407zm1.407 0a.704.704 0 01-1.407 0h1.406z" fill="#003C5F"/><path fill-rule="evenodd" clip-rule="evenodd" d="M37.29 22.977v5.93c0 1.14.772 2.35 1.96 3.426 1.087.983 2.402 1.746 3.41 2.127 1.006-.381 2.322-1.144 3.408-2.127 1.189-1.076 1.96-2.285 1.96-3.426v-5.93c-1.8-.814-3.587-1.196-5.365-1.185h-.008c-1.778-.01-3.565.371-5.365 1.185zm-.703-.447l-.308-.632c2.113-1.029 4.242-1.525 6.38-1.513 2.139-.012 4.268.485 6.38 1.513a.703.703 0 01.396.632v6.377c0 1.744-1.138 3.306-2.423 4.469-1.304 1.18-2.906 2.086-4.128 2.498a.704.704 0 01-.45 0c-1.222-.412-2.823-1.317-4.128-2.498-1.284-1.163-2.423-2.725-2.423-4.469V22.53h.704z" fill="#003C5F"/><path fill-rule="evenodd" clip-rule="evenodd" d="M46.18 25.365a.703.703 0 010 .994l-3.205 3.204a.703.703 0 01-.995 0l-1.641-1.642a.703.703 0 01.995-.994l1.144 1.144 2.706-2.706a.703.703 0 01.995 0z" fill="#003C5F"/><path fill-rule="evenodd" clip-rule="evenodd" d="M28 54c14.36 0 26-11.64 26-26S42.36 2 28 2 2 13.64 2 28s11.64 26 26 26zm0 2c15.464 0 28-12.536 28-28S43.464 0 28 0 0 12.536 0 28s12.536 28 28 28z" fill="#008DD2"/></svg><svg fill="none" viewBox="0 0 56 56" id="belay3" xmlns="http://www.w3.org/2000/svg"><path fill-rule="evenodd" clip-rule="evenodd" d="M28.804 15.786c-3.65-.022-7.307.755-10.977 2.397l-.012.006a.863.863 0 00-.516.81v11.808c0 2.599 1.737 5.208 4.177 7.417 2.337 2.116 5.187 3.742 7.333 4.51 2.145-.768 4.996-2.394 7.333-4.51 2.439-2.209 4.177-4.818 4.177-7.417V18.998a.863.863 0 00-.528-.815c-3.67-1.643-7.328-2.42-10.978-2.398h-.009zm.005-1.407c-3.856-.022-7.706.8-11.541 2.514a2.27 2.27 0 00-1.376 2.106v11.807c0 3.203 2.104 6.165 4.64 8.46 2.554 2.314 5.69 4.083 8.052 4.878.146.05.303.05.45 0 2.36-.795 5.497-2.564 8.052-4.877 2.535-2.296 4.64-5.258 4.64-8.46V18.998a2.27 2.27 0 00-1.36-2.1m0 0c-3.842-1.718-7.696-2.543-11.557-2.52l11.556 2.52z" fill="#003C5F"/><path d="M26.028 19.566a.705.705 0 011.41.011l-1.41-.01zm-.005.605l.005-.605 1.41.011-.004.604-1.411-.01zm1.41.01a.705.705 0 01-1.41-.01l1.41.01zm-1.411 3.562a.705.705 0 011.411 0H26.022zm.004 6.518l-.004-6.518 1.41-.001.005 6.518-1.41.001zm1.411 0a.705.705 0 01-1.411 0l1.41-.001h.001zm-1.41 2.39v-2.39h1.41v2.39h-1.41zm1.41 0a.705.705 0 01-1.411 0H27.437zm-1.41 3.512a.705.705 0 011.41 0h-1.41zm0 .483v-.483h1.41v.483h-1.41zm1.41 0a.705.705 0 01-1.411 0H27.437z" fill="#003C5F"/><path fill-rule="evenodd" clip-rule="evenodd" d="M25.831 22.684a2.403 2.403 0 00-2.394 2.394c0 .982.603 1.836 1.462 2.203a.703.703 0 01-.552 1.294 3.812 3.812 0 01-2.317-3.497 3.81 3.81 0 013.801-3.801h3.091a.703.703 0 110 1.407h-3.09zm2.011 5.49c0-.388.315-.703.704-.703h.773a.703.703 0 010 1.407h-.773a.703.703 0 01-.704-.703zm4.566-.017a.703.703 0 01.93-.353 3.81 3.81 0 012.249 3.468 3.81 3.81 0 01-3.801 3.8h-2.671a.703.703 0 110-1.406h2.67a2.403 2.403 0 002.395-2.394c0-.966-.582-1.808-1.419-2.185a.703.703 0 01-.353-.93z" fill="#003C5F"/><path fill-rule="evenodd" clip-rule="evenodd" d="M27.468 21.98c0-.389.315-.704.704-.704h3.255a4.27 4.27 0 013.571 1.94.703.703 0 11-1.177.77 2.864 2.864 0 00-2.394-1.303h-3.255a.703.703 0 01-.704-.703zM22.491 32.16a.703.703 0 01.974.203 2.864 2.864 0 002.395 1.303h3.255a.703.703 0 110 1.406H25.86a4.27 4.27 0 01-3.572-1.94.703.703 0 01.203-.973z" fill="#003C5F"/><path d="M30.403 19.566a.705.705 0 011.41.011l-1.41-.01zm-.005.605l.005-.605 1.41.011-.004.604-1.411-.01zm1.41.01a.705.705 0 01-1.41-.01l1.41.01zm-1.411 3.562a.705.705 0 011.411 0H30.397zm.004 6.518l-.004-6.518 1.41-.001.005 6.518-1.41.001zm1.411 0a.705.705 0 01-1.411 0l1.41-.001h.001zm-1.41 2.39v-2.39h1.41v2.39h-1.41zm1.41 0a.705.705 0 01-1.411 0H31.812zm-1.41 3.512a.705.705 0 011.41 0h-1.41zm0 .483v-.483h1.41v.483h-1.41zm1.41 0a.705.705 0 01-1.411 0H31.812z" fill="#003C5F"/><path fill-rule="evenodd" clip-rule="evenodd" d="M28 54c14.36 0 26-11.64 26-26S42.36 2 28 2 2 13.64 2 28s11.64 26 26 26zm0 2c15.464 0 28-12.536 28-28S43.464 0 28 0 0 12.536 0 28s12.536 28 28 28z" fill="#008DD2"/></svg><svg fill="none" viewBox="0 0 56 56" id="belay4" xmlns="http://www.w3.org/2000/svg"><path d="M24.802 27.132a.626.626 0 010-1.254v1.254zm7.758 0h-7.758v-1.254h7.758v1.254zm0-1.254a.626.626 0 010 1.254v-1.254z" fill="#003C5F"/><path d="M25.177 26.948a.627.627 0 01-.886-.886l.886.886zm1.555-1.554l-1.555 1.555-.886-.887 1.554-1.554.887.886zm-.887-.886a.627.627 0 01.887.886l-.887-.886zM32.492 28.18a.626.626 0 010 1.254v-1.253zm-7.758 0h7.758v1.254h-7.758v-1.253zm0 1.254a.626.626 0 010-1.253v1.253z" fill="#003C5F"/><path d="M32.117 28.364a.627.627 0 01.886.887l-.886-.887zm-1.554 1.555l1.554-1.555.886.887-1.554 1.554-.886-.886zm.886.886a.627.627 0 01-.886-.886l.886.886zM18.666 20.397V18.92l.239.006.236.018.233.03.23.042.225.053.221.063.217.074.212.084.206.094.2.104.196.113.188.121.182.131.176.14.168.146.162.155.153.163.146.17.138.177.13.183.12.19.111.196.103.202.093.208.083.212.073.218.063.222.052.226.04.23.03.235.018.236.007.24h-1.48l-.003-.166-.013-.163-.02-.161-.028-.158-.035-.155-.043-.152-.05-.15-.057-.145-.063-.142-.07-.138-.077-.134-.082-.13-.09-.126-.093-.121-.1-.116-.105-.112-.11-.106-.116-.1-.12-.096-.124-.089-.128-.083-.133-.077-.136-.07-.14-.064-.144-.057-.147-.05-.15-.044-.152-.035-.156-.028-.158-.02-.161-.013-.164-.004h-.003zm-3.17 3.204h-1.48l.007-.24.018-.236.03-.235.041-.23.052-.226.062-.222.073-.218.084-.212.093-.208.102-.202.112-.196.12-.19.13-.183.137-.177.146-.17.154-.162.161-.156.169-.147.175-.139.182-.13.189-.122.195-.114.2-.103.207-.094.212-.085.216-.073.221-.064.226-.052.23-.041.232-.03.237-.019.239-.006v1.477l-.164.004-.161.012-.158.02-.156.029-.153.035-.15.043-.146.05-.144.058-.14.064-.136.07-.133.076-.129.084-.124.089-.12.095-.115.1-.11.106-.105.112-.1.116-.094.121-.089.126-.082.13-.077.134-.07.139-.063.141-.057.146-.05.15-.043.15-.035.156-.028.158-.02.161-.013.164-.004.166h-.003zm3.17 3.205v1.476l-.239-.006-.236-.018-.233-.03-.23-.042-.225-.052-.221-.063-.217-.074-.212-.084-.206-.094-.2-.104-.196-.113-.188-.122-.182-.13-.176-.14-.168-.147-.162-.155-.153-.163-.146-.17-.138-.176-.13-.184-.12-.19-.111-.195-.103-.202-.093-.208-.083-.213-.073-.217-.063-.222-.052-.227-.04-.23-.03-.234-.018-.237-.007-.24h1.48l.003.166.013.164.02.16.028.159.036.155.042.152.05.149.057.146.063.141.07.139.077.134.082.13.09.125.093.122.1.116.105.111.11.106.116.101.12.095.124.09.129.083.132.076.136.07.14.064.144.058.147.05.15.043.152.035.156.028.158.02.161.013.164.004h.003zm3.17-3.205h1.48l-.007.24-.018.237-.03.234-.04.23-.053.227-.062.222-.073.217-.084.213-.092.207-.103.203-.112.195-.12.19-.13.184-.137.177-.146.17-.154.162-.161.155-.169.147-.175.14-.182.13-.189.122-.195.113-.2.104-.207.094-.212.084-.216.074-.221.063-.226.052-.23.042-.232.03-.237.018-.238.007v-1.477l.163-.004.161-.013.158-.02.156-.028.153-.036.15-.043.146-.05.144-.057.14-.064.136-.07.133-.077.129-.083.124-.09.12-.094.115-.101.11-.106.106-.112.1-.116.093-.12.089-.127.082-.13.077-.134.07-.138.063-.142.057-.146.05-.149.043-.151.035-.156.028-.157.02-.162.013-.163.004-.166h.003zM25.981 36.21a.74.74 0 01-1.479 0h1.48zm0-1.779v1.78h-1.479v-1.78h1.48zm-4.97-3.49v-1.48l.255.007.251.02.249.03.245.045.24.056.236.067.23.079.226.089.22.1.214.11.208.12.201.129.195.139.188.147.18.156.173.165.164.172.156.18.148.188.139.195.13.202.119.207.11.214.1.22.09.226.078.231.067.236.056.24.044.245.031.248.02.252.006.254h-1.479l-.004-.179-.014-.176-.022-.174-.03-.17-.04-.17-.047-.165-.055-.161-.063-.158-.07-.154-.078-.15-.084-.147-.092-.142-.097-.137-.104-.133-.11-.127-.117-.122-.122-.116-.126-.11-.133-.104-.137-.097-.142-.092-.146-.084-.15-.078-.155-.07-.158-.063-.161-.055-.165-.047-.168-.039-.17-.03-.174-.023-.177-.014-.18-.004.001.001zm-4.69-1.48h4.69v1.48h-4.69v-1.48zm-3.49 4.97h-1.48l.007-.254.02-.252.031-.248.044-.245.056-.24.067-.236.08-.23.088-.226.1-.22.11-.215.12-.208.13-.201.139-.195.147-.188.156-.18.165-.173.173-.164.18-.157.188-.147.194-.139.202-.129.208-.12.215-.11.22-.1.225-.09.231-.078.236-.068.24-.055.244-.045.25-.031.25-.02.255-.006v1.479l-.18.004-.176.014-.173.022-.171.03-.169.04-.164.047-.162.055-.158.063-.155.07-.15.078-.147.084-.141.091-.137.098-.133.104-.127.11-.122.116-.115.122-.11.127-.105.132-.097.137-.092.142-.084.147-.077.15-.07.154-.063.158-.055.162-.048.165-.04.169-.03.17-.022.174-.014.176-.004.18zm-1.48 1.78v-1.78h1.48v1.78h-1.48zm1.48 0a.74.74 0 01-1.48 0h1.48zM38.894 20.397V18.92l.239.006.236.018.233.03.23.042.224.053.222.063.216.074.212.084.206.094.201.104.195.113.188.121.183.131.175.14.169.146.16.155.155.163.146.17.137.176.13.184.12.19.112.196.102.202.093.208.083.212.074.218.062.222.052.226.04.23.03.235.019.236.006.24h-1.479l-.004-.166-.013-.163-.02-.161-.028-.158-.035-.155-.043-.152-.05-.15-.057-.145-.063-.142-.07-.138-.077-.134-.082-.13-.089-.126-.094-.121-.1-.116-.105-.112-.11-.106-.116-.1-.12-.096-.124-.089-.129-.083-.133-.077-.136-.07-.14-.064-.143-.057-.147-.05-.15-.043-.153-.035-.156-.028-.158-.02-.16-.013-.164-.004-.002-.001zm-3.17 3.204h-1.48l.007-.24.018-.236.03-.235.04-.23.053-.226.062-.222.073-.218.083-.212.093-.208.103-.202.112-.196.12-.19.13-.183.137-.177.146-.17.154-.162.161-.156.168-.147.176-.139.182-.13.189-.122.194-.114.201-.103.207-.094.211-.085.217-.073.221-.064.226-.052.23-.041.232-.03.236-.019.24-.006v1.477l-.164.004-.161.012-.159.02-.155.029-.153.035-.15.043-.147.05-.143.058-.14.064-.137.07-.132.076-.129.084-.124.089-.12.095-.115.1-.11.106-.105.112-.1.116-.094.121-.09.126-.082.13-.076.134-.07.139-.063.141-.058.146-.05.15-.042.15-.035.156-.028.158-.02.161-.013.164-.004.166h-.003zm3.17 3.205v1.476l-.24-.006-.235-.018-.233-.03-.23-.042-.225-.052-.222-.063-.216-.074-.212-.084-.206-.094-.201-.104-.195-.113-.188-.122-.183-.13-.175-.14-.168-.147-.162-.155-.154-.163-.145-.17-.138-.176-.13-.184-.12-.19-.111-.195-.103-.202-.093-.208-.083-.213-.074-.217-.062-.222-.052-.227-.04-.23-.03-.234-.019-.237-.006-.24h1.48l.003.166.013.164.02.16.028.159.035.155.043.152.05.149.057.146.063.141.07.139.077.134.082.13.089.125.094.122.1.116.105.111.11.106.115.101.12.095.124.09.13.083.132.076.136.07.14.064.144.058.147.05.15.043.152.035.156.028.158.02.161.013.164.004h.003zm3.17-3.205h1.479l-.006.24-.018.237-.03.234-.041.23-.052.227-.062.222-.074.217-.083.213-.093.207-.102.203-.112.195-.12.19-.13.184-.137.177-.146.17-.154.162-.162.155-.168.147-.175.14-.183.13-.188.122-.195.113-.2.104-.207.094-.212.084-.216.074-.222.063-.225.052-.229.042-.233.03-.236.018-.24.007v-1.477l.164-.004.161-.013.158-.02.156-.028.153-.036.15-.043.147-.05.143-.056.14-.064.136-.07.133-.077.129-.083.124-.09.12-.095.115-.1.11-.107.106-.111.1-.116.094-.121.089-.126.082-.13.077-.134.07-.139.063-.141.057-.146.05-.15.043-.15.035-.156.028-.158.02-.161.013-.163.004-.167h.002zM46.209 36.21a.74.74 0 01-1.48 0h1.48zm0-1.779v1.78h-1.48v-1.78h1.48zm-4.97-3.49v-1.48l.254.007.251.02.249.03.245.045.24.056.236.067.23.079.226.089.22.1.214.11.208.12.202.129.194.139.188.147.18.156.173.165.164.172.156.18.148.188.139.195.13.202.12.207.11.214.099.22.09.226.078.231.067.236.056.24.044.245.032.248.019.252.006.254h-1.479l-.004-.179-.014-.176-.022-.174-.03-.17-.04-.17-.047-.165-.055-.161-.063-.158-.07-.154-.078-.15-.084-.147-.092-.142-.097-.137-.104-.133-.11-.127-.117-.122-.122-.116-.126-.11-.133-.104-.137-.097-.142-.092-.146-.084-.15-.078-.155-.07-.158-.063-.161-.055-.165-.047-.168-.039-.17-.03-.174-.023-.177-.014-.179-.004v.001zm-4.69-1.48h4.69v1.48h-4.69v-1.48zm-3.492 4.97h-1.479l.007-.254.02-.252.031-.248.044-.245.056-.24.067-.236.08-.23.088-.226.1-.22.11-.215.12-.208.13-.201.139-.195.147-.188.156-.18.165-.173.173-.164.18-.157.188-.147.194-.139.202-.129.208-.12.215-.11.22-.1.225-.09.231-.078.236-.068.24-.055.244-.045.25-.031.25-.02.255-.006v1.479l-.18.004-.176.014-.173.022-.171.03-.169.04-.164.047-.163.055-.157.063-.155.07-.15.078-.147.084-.141.091-.137.098-.133.104-.127.11-.122.116-.115.122-.11.127-.105.132-.097.137-.092.142-.084.147-.077.15-.07.154-.063.158-.055.162-.048.165-.04.169-.03.17-.022.174-.014.176-.004.18zm-1.479 1.78v-1.78h1.48v1.78h-1.48zm1.48 0a.74.74 0 01-1.48 0h1.48z" fill="#003C5F"/><path fill-rule="evenodd" clip-rule="evenodd" d="M28 54c14.36 0 26-11.64 26-26S42.36 2 28 2 2 13.64 2 28s11.64 26 26 26zm0 2c15.464 0 28-12.536 28-28S43.464 0 28 0 0 12.536 0 28s12.536 28 28 28z" fill="#008DD2"/></svg><svg fill="none" viewBox="0 0 56 56" id="belay5" xmlns="http://www.w3.org/2000/svg"><path fill-rule="evenodd" clip-rule="evenodd" d="M17.355 19.576c-.862 0-1.57.708-1.57 1.57v14.776c0 .862.708 1.57 1.57 1.57h22.733c.862 0 1.57-.708 1.57-1.57V21.146c0-.862-.708-1.57-1.57-1.57H17.355zm-2.977 1.57a2.983 2.983 0 012.977-2.977h22.733a2.983 2.983 0 012.977 2.977v14.776a2.983 2.983 0 01-2.977 2.977H17.355a2.983 2.983 0 01-2.977-2.977V21.146z" fill="#003C5F"/><path fill-rule="evenodd" clip-rule="evenodd" d="M17.355 19.576c-.862 0-1.57.708-1.57 1.57v.682a5.409 5.409 0 005.435 5.434h2.693a.703.703 0 110 1.407H21.22a6.815 6.815 0 01-6.842-6.841v-.682a2.983 2.983 0 012.977-2.977h22.733a2.983 2.983 0 012.977 2.977v.682a6.815 6.815 0 01-6.841 6.841h-2.775a.703.703 0 010-1.407h2.775a5.409 5.409 0 005.434-5.434v-.682c0-.862-.708-1.57-1.57-1.57H17.355zM31.847 17.363c-.693-.987-1.807-1.593-3.118-1.578h-.008a3.801 3.801 0 00-3.144 1.638.704.704 0 01-1.152-.807 5.208 5.208 0 014.292-2.237c1.78-.02 3.325.815 4.281 2.176a.703.703 0 11-1.151.808z" fill="#003C5F"/><path fill-rule="evenodd" clip-rule="evenodd" d="M28.722 22.839a2.192 2.192 0 100 4.385 2.192 2.192 0 000-4.385zm-3.658 2.192a3.658 3.658 0 117.316 0 3.658 3.658 0 01-7.316 0z" fill="#003C5F"/><path fill-rule="evenodd" clip-rule="evenodd" d="M28.722 28.69a2.61 2.61 0 100 5.22 2.61 2.61 0 000-5.22zm-4.076 2.61a4.076 4.076 0 118.151 0 4.076 4.076 0 01-8.151 0z" fill="#003C5F"/><path fill-rule="evenodd" clip-rule="evenodd" d="M28 54c14.36 0 26-11.64 26-26S42.36 2 28 2 2 13.64 2 28s11.64 26 26 26zm0 2c15.464 0 28-12.536 28-28S43.464 0 28 0 0 12.536 0 28s12.536 28 28 28z" fill="#008DD2"/></svg><svg fill="none" viewBox="0 0 56 56" id="belay6" xmlns="http://www.w3.org/2000/svg"><path fill-rule="evenodd" clip-rule="evenodd" d="M24.222 33.01a1.068 1.068 0 011.516 0 1.07 1.07 0 010 1.516 1.07 1.07 0 01-1.516 0 1.069 1.069 0 010-1.517zm18.263 0a1.068 1.068 0 011.516 0 1.07 1.07 0 010 1.516 1.07 1.07 0 01-1.516 0 1.07 1.07 0 010-1.517zm-27.173 2.956a3.1 3.1 0 01-.912-2.146h-1.467c-.436 0-.832-.177-1.118-.464a1.577 1.577 0 01-.464-1.117V18.987c0-.436.178-.832.464-1.118a1.577 1.577 0 011.118-.464h24.704c.436 0 .831.178 1.117.464.287.286.464.682.464 1.118v1.476h4.025c.436 0 .832.178 1.118.464a1.577 1.577 0 01-.003 2.238l.863 3.453a2.603 2.603 0 012.152 2.562v3.058a1.59 1.59 0 01-1.02 1.479l.001.05a3.1 3.1 0 01-.912 2.2 3.1 3.1 0 01-2.199.911 3.1 3.1 0 01-2.198-.912 3.1 3.1 0 01-.912-2.146H28.091a3.101 3.101 0 01-.912 2.146 3.101 3.101 0 01-2.198.912 3.101 3.101 0 01-2.199-.912 3.101 3.101 0 01-.911-2.146h-1.25a3.102 3.102 0 01-.911 2.146 3.101 3.101 0 01-2.199.912 3.1 3.1 0 01-2.198-.912h-.001zm3.99-4.738a3.12 3.12 0 011.128 1.467h1.63a3.116 3.116 0 012.92-2.038 3.12 3.12 0 012.92 2.039h10.194v-13.71a.456.456 0 00-.457-.457H12.933a.455.455 0 00-.457.457v13.252a.456.456 0 00.457.457h1.657a3.116 3.116 0 012.92-2.038 3.1 3.1 0 011.793.571zm-3.196 3.943a1.98 1.98 0 002.808 0 1.98 1.98 0 00.001-2.806 1.987 1.987 0 00-3.392 1.402c0 .547.223 1.044.583 1.404zm27.946-8.592l-.738-2.953h-4.096v2.157l1.08-1.079a.562.562 0 01.795.795l-1.08 1.08h4.04zm-.486-4.212a.456.456 0 00-.323-.78h-4.025v.915h4.025c.127 0 .24-.052.323-.134zm-19.99 12.804a1.98 1.98 0 002.807 0 1.981 1.981 0 00.002-2.806 1.986 1.986 0 10-2.81 2.805h.001zm18.263 0a1.98 1.98 0 002.808 0 1.981 1.981 0 00.001-2.806 1.987 1.987 0 00-3.392 1.401c0 .548.223 1.045.583 1.404zm3.153-3.973c.49.334.884.806 1.12 1.366a.449.449 0 00.136-.327v-2.495h-1.476a.56.56 0 01-.562-.563.56.56 0 01.562-.562h1.365a1.484 1.484 0 00-1.365-.914h-5.554v4.991h1.105a3.116 3.116 0 012.92-2.038c.642 0 1.246.199 1.75.541zm-2.656-2.416a.56.56 0 01.794 0 .56.56 0 01-.397.96.56.56 0 01-.397-.96zm-25.584 4.226a1.068 1.068 0 011.516 0c.194.194.314.462.314.759a1.068 1.068 0 01-1.072 1.072 1.07 1.07 0 01-1.073-1.072c0-.297.12-.565.314-.759z" fill="#003C5F"/><path d="M16.808 23.807v3.46c0 .149.052.275.155.378a.522.522 0 00.379.156.51.51 0 00.375-.156.515.515 0 00.155-.378v-3.46h1.132a.522.522 0 00.378-.155.51.51 0 00.156-.375.509.509 0 00-.156-.375.516.516 0 00-.378-.159h-3.325a.51.51 0 00-.378.16.512.512 0 00-.155.374.51.51 0 00.155.375c.104.103.23.155.378.155h1.129zm6.778.801a.77.77 0 01-.236.564.768.768 0 01-.564.233h-1.463v-1.598h1.463c.22 0 .408.08.564.237a.763.763 0 01.236.564zm-1.02 1.861l1.175 1.176a.51.51 0 00.375.156.522.522 0 00.379-.156.515.515 0 00.155-.378.51.51 0 00-.155-.375l-.713-.713c.265-.169.475-.39.628-.662.16-.282.24-.584.24-.909 0-.513-.182-.952-.547-1.317a1.796 1.796 0 00-1.317-.548h-1.994a.51.51 0 00-.378.16.51.51 0 00-.155.374v3.99c0 .149.051.275.155.378.103.104.23.156.378.156a.51.51 0 00.375-.156.514.514 0 00.156-.378v-.797h1.243zm3.288-3.692a.515.515 0 00-.253.193.52.52 0 00-.098.307v3.99c0 .149.051.275.155.379.104.103.23.155.379.155a.51.51 0 00.375-.155.514.514 0 00.155-.379v-2.52l2.385 2.861a.506.506 0 00.408.193.51.51 0 00.436-.227.52.52 0 00.098-.307v-3.99a.509.509 0 00-.155-.375.516.516 0 00-.379-.158.505.505 0 00-.374.159.512.512 0 00-.156.374v2.52l-2.385-2.86a.525.525 0 00-.27-.173.522.522 0 00-.32.014zm5.427 3.96a.514.514 0 00-.378.155.51.51 0 00-.156.375c0 .149.052.275.156.378.103.104.23.156.378.156h2.328c.421 0 .781-.15 1.08-.45.3-.299.45-.66.45-1.08 0-.422-.15-.782-.45-1.081-.3-.3-.659-.45-1.08-.45h-1.331a.445.445 0 01-.328-.135.453.453 0 01-.138-.331.44.44 0 01.138-.328c.09-.092.2-.138.328-.138h2.327a.522.522 0 00.379-.156.512.512 0 00.155-.375.51.51 0 00-.155-.375.516.516 0 00-.379-.158h-2.327c-.421 0-.782.15-1.081.45-.3.299-.45.659-.45 1.08 0 .424.15.784.45 1.081.3.3.66.45 1.08.45h1.332a.44.44 0 01.328.138c.092.09.138.199.138.327a.453.453 0 01-.139.332c-.09.09-.199.135-.327.135H31.28z" fill="#003C5F"/><path fill-rule="evenodd" clip-rule="evenodd" d="M28 54c14.36 0 26-11.64 26-26S42.36 2 28 2 2 13.64 2 28s11.64 26 26 26zm0 2c15.464 0 28-12.536 28-28S43.464 0 28 0 0 12.536 0 28s12.536 28 28 28z" fill="#008DD2"/></svg><svg fill="none" viewBox="0 0 53 53" id="econ-icon" xmlns="http://www.w3.org/2000/svg"><circle cx="26.5" cy="26.5" r="26.5" fill="#F1F1F1"/><path d="M34.595 30.267a.997.997 0 01-.65-1.246.99.99 0 011.239-.654c.91.286 1.633.62 2.142.987.7.503 1.064 1.1 1.064 1.768 0 1.308-1.54 2.355-4.029 2.991-2.103.537-4.991.87-8.166.87-3.174 0-6.063-.333-8.166-.87C15.54 33.477 14 32.43 14 31.123c0-.637.333-1.21.974-1.7.468-.357 1.128-.684 1.96-.966a.987.987 0 011.252.627.996.996 0 01-.624 1.258c-.631.214-1.1.439-1.395.663-.12.092-.183.102-.183.117 0 .274.968.659 2.533 1.059 1.952.498 4.666.807 7.678.807 3.013 0 5.726-.309 7.678-.807 1.565-.4 2.534-.785 2.534-1.058 0-.01-.079-.04-.228-.148-.339-.244-.873-.484-1.584-.707v0z" fill="#374148" stroke="#F1F1F1" stroke-width=".6"/><path d="M36.67 35.089a.986.986 0 011.344.385.997.997 0 01-.383 1.352c-1.099.614-2.776 1.11-4.786 1.445-1.961.327-4.256.51-6.642.51-2.405 0-4.712-.185-6.68-.516-2.013-.338-3.691-.84-4.785-1.461a.996.996 0 01-.376-1.352.984.984 0 011.344-.378c.885.503 2.34.925 4.143 1.228 1.849.31 4.042.485 6.354.485 2.3 0 4.483-.173 6.325-.48 1.792-.299 3.246-.717 4.142-1.218h0zM25.999 11c2.847 0 5.425 1.161 7.291 3.037a10.367 10.367 0 013.02 7.333c0 2.863-1.154 5.456-3.02 7.333A10.251 10.251 0 0126 31.74a10.254 10.254 0 01-7.292-3.037 10.367 10.367 0 01-3.02-7.333c0-2.863 1.154-5.456 3.02-7.333A10.253 10.253 0 0125.999 11h0zm5.889 4.448a8.28 8.28 0 00-5.89-2.453 8.28 8.28 0 00-5.89 2.453 8.374 8.374 0 00-2.438 5.922c0 2.313.932 4.407 2.439 5.922a8.28 8.28 0 005.89 2.453c2.3 0 4.382-.937 5.889-2.453a8.373 8.373 0 002.439-5.922 8.373 8.373 0 00-2.44-5.922z" fill="#374148" stroke="#F1F1F1" stroke-width=".6"/><path d="M25.016 15.544a.99.99 0 01.992-.99.991.991 0 01.984.998l-.003.32a.99.99 0 01-.991.99.99.99 0 01-.984-.998l.002-.32zm-2.372 8.866a1 1 0 01.287-1.379.988.988 0 011.371.289.893.893 0 00.764.419h1.946a.667.667 0 00.662-.666.843.843 0 00-.003-.102.653.653 0 00-.023-.099c-.114-.36-.901-.406-1.69-.452-1.344-.08-2.692-.159-3.352-1.518a2.684 2.684 0 01-.267-1.157 2.66 2.66 0 012.646-2.662h1.945a2.914 2.914 0 012.422 1.323 1 1 0 01-.286 1.38.988.988 0 01-1.371-.289.894.894 0 00-.764-.418h-1.946a.667.667 0 00-.598.952v.003c.149.31.916.354 1.68.399 1.47.086 2.937.172 3.463 1.84a2.709 2.709 0 01.128.8 2.66 2.66 0 01-2.646 2.66h-1.945a2.92 2.92 0 01-2.422-1.323h-.001zm4.351 2.725c0 .55-.444.997-.992.997a.995.995 0 01-.991-.997v-.214c0-.551.444-.997.991-.997.548 0 .992.446.992.997v.214z" fill="#22B0F5" stroke="#F1F1F1" stroke-width=".6"/><path d="M36.67 38.89a.986.986 0 011.344.385.997.997 0 01-.384 1.352c-1.098.613-2.775 1.108-4.786 1.444-1.961.327-4.255.51-6.642.51-2.404 0-4.711-.185-6.679-.516-2.014-.338-3.692-.84-4.786-1.46a.996.996 0 01-.375-1.353.984.984 0 011.344-.378c.884.503 2.34.925 4.142 1.228 1.849.31 4.043.485 6.354.485 2.3 0 4.484-.172 6.325-.48 1.792-.298 3.246-.717 4.142-1.218v0z" fill="#374148" stroke="#F1F1F1" stroke-width=".6"/></svg><svg fill="none" viewBox="0 0 53 53" id="houm-icon" xmlns="http://www.w3.org/2000/svg"><circle cx="26.5" cy="26.5" r="26.5" fill="#F1F1F1"/><path d="M21.652 36.935a.986.986 0 011.34-.398c.48.263.656.866.395 1.349-.204.376-2.45 4.499-2.447 4.5a1.639 1.639 0 01-.655.658v.002a1.624 1.624 0 01-.905.192h-.004a1.628 1.628 0 01-.863-.328 1.004 1.004 0 01-.099-.085 1.632 1.632 0 01-.45-.67l-.768-2.124-2.195.498a1.625 1.625 0 01-.921-.057l-.004-.001a1.626 1.626 0 01-.802-.644 1.641 1.641 0 01-.27-.787 1.652 1.652 0 01.2-.906l2.436-4.475a.986.986 0 011.34-.398c.48.262.657.866.396 1.348l-2.075 3.813 1.753-.397c.403-.09.806-.025 1.145.16.34.188.614.495.754.885l.613 1.697 2.086-3.832h0z" fill="#374148" stroke="#F1F1F1" stroke-width=".6"/><path d="M23.073 23.872a1.001 1.001 0 010-1.41.988.988 0 011.402 0l1.252 1.26 3.111-3.129a.988.988 0 011.403 0c.387.39.387 1.021 0 1.41l-3.813 3.834a.988.988 0 01-1.402 0l-1.953-1.965h0z" fill="#22B0F5" stroke="#F1F1F1" stroke-width=".6"/><path d="M26.413 15.236c2.166 0 4.128.884 5.547 2.312a7.888 7.888 0 012.299 5.579 7.887 7.887 0 01-2.299 5.578 7.8 7.8 0 01-5.547 2.312 7.799 7.799 0 01-5.548-2.312 7.888 7.888 0 01-2.299-5.578c0-2.179.879-4.152 2.299-5.58a7.8 7.8 0 015.548-2.31zm4.145 3.722a5.827 5.827 0 00-4.145-1.727c-1.62 0-3.085.66-4.146 1.727a5.892 5.892 0 00-1.717 4.168c0 1.628.657 3.102 1.717 4.169a5.828 5.828 0 004.146 1.726c1.619 0 3.085-.66 4.145-1.726a5.893 5.893 0 001.717-4.169 5.892 5.892 0 00-1.717-4.168z" fill="#22B0F5" stroke="#F1F1F1" stroke-width=".6"/><path d="M28.643 10.951l.324.335c.15.157.328.263.517.314.188.05.395.047.606-.013l.447-.128a3.06 3.06 0 011.228-.101c.401.05.793.184 1.17.404h.004c.374.217.685.49.931.818.247.328.424.704.53 1.126l.113.453c.053.213.153.393.288.528l.004.004c.134.135.313.236.525.289l.45.114c.42.107.794.285 1.12.533a3.1 3.1 0 01.814.936l.035.067c.197.36.32.732.367 1.114.05.404.016.818-.102 1.235l-.127.45a1.15 1.15 0 00-.012.61c.05.189.155.367.311.519l.334.326a3.105 3.105 0 01.945 2.242 3.106 3.106 0 01-.946 2.242l-.333.326c-.156.152-.261.33-.311.52-.05.19-.048.398.012.61l.127.45c.118.417.151.83.101 1.234-.05.404-.184.797-.402 1.177v.004a3.103 3.103 0 01-.813.936c-.326.248-.7.426-1.12.533l-.45.114c-.212.054-.39.154-.526.29l-.003.003a1.126 1.126 0 00-.288.528l-.114.453a3.119 3.119 0 01-.53 1.126 3.09 3.09 0 01-.93.818l-.067.036a3.058 3.058 0 01-1.107.369 3.07 3.07 0 01-1.228-.103l-.447-.127a1.132 1.132 0 00-.607-.013c-.189.05-.366.157-.517.313l-.323.336a3.07 3.07 0 01-2.23.951 3.07 3.07 0 01-2.23-.951l-.324-.336a1.127 1.127 0 00-.517-.313 1.135 1.135 0 00-.607.013l-.447.127a3.063 3.063 0 01-1.228.102 3.081 3.081 0 01-1.17-.404h-.004a3.096 3.096 0 01-.93-.818 3.119 3.119 0 01-.53-1.126l-.114-.453a1.126 1.126 0 00-.288-.528l-.003-.004a1.117 1.117 0 00-.526-.29l-.45-.114a3.086 3.086 0 01-1.12-.532 3.098 3.098 0 01-.813-.936l-.036-.067a3.1 3.1 0 01-.366-1.114 3.118 3.118 0 01.101-1.235l.127-.45c.06-.212.063-.42.013-.61a1.133 1.133 0 00-.312-.52l-.333-.325a3.106 3.106 0 01-.946-2.243 3.1 3.1 0 01.946-2.242l.333-.326c.156-.152.261-.33.312-.52.05-.189.047-.397-.013-.61l-.127-.449a3.11 3.11 0 01-.101-1.235c.05-.403.184-.797.402-1.176v-.005c.216-.376.488-.688.813-.936.327-.248.701-.426 1.12-.532l.45-.115c.212-.053.391-.153.526-.289l.004-.004c.135-.135.234-.315.287-.528l.114-.453a3.12 3.12 0 01.53-1.126c.246-.327.557-.601.93-.818l.067-.035a3.056 3.056 0 011.108-.37c.402-.05.813-.015 1.228.103l.447.128c.211.06.419.063.607.012.188-.05.366-.156.516-.313l.324-.335a3.089 3.089 0 011.018-.707c.377-.16.782-.24 1.212-.24V10a3.07 3.07 0 012.23.95v.001zm-1.095 1.722l-.323-.335a1.132 1.132 0 00-.367-.262 1.133 1.133 0 00-.445-.08v-.005c-.164 0-.313.028-.445.084a1.133 1.133 0 00-.367.263l-.324.335a3.09 3.09 0 01-1.423.85c-.53.143-1.094.14-1.653-.02l-.447-.127a1.141 1.141 0 00-.453-.04c-.132.016-.26.058-.385.124l-.038.023a1.131 1.131 0 00-.341.296c-.086.114-.15.251-.19.41l-.113.452a3.12 3.12 0 01-.81 1.45l-.004.005c-.39.392-.882.673-1.444.816l-.45.114c-.157.04-.294.104-.407.19a1.142 1.142 0 00-.295.343h-.002c-.078.136-.126.28-.144.425-.018.146-.005.299.04.456l.126.45c.159.561.162 1.129.02 1.661a3.115 3.115 0 01-.846 1.432l-.333.325a1.13 1.13 0 00-.26.37c-.054.126-.081.276-.081.447 0 .17.027.32.08.447.054.13.142.253.26.37l.334.325c.419.408.704.899.846 1.431.142.532.139 1.1-.02 1.662l-.127.45c-.044.157-.057.31-.04.456.017.132.058.262.124.387l.023.037c.081.142.18.257.294.344.114.086.25.15.407.19l.45.114a3.095 3.095 0 011.443.814l.005.005c.389.392.669.887.81 1.452l.114.453c.04.158.103.295.189.41.086.114.2.213.342.295l-.001.002c.136.079.278.127.423.145.145.018.297.005.453-.04l.447-.127a3.073 3.073 0 011.652-.02 3.09 3.09 0 011.424.85l.324.336c.116.12.239.208.367.262.126.054.275.08.445.08.17 0 .319-.026.445-.08.128-.054.251-.142.367-.262l.324-.335a3.09 3.09 0 011.423-.85 3.074 3.074 0 011.652.019l.447.128c.157.044.31.057.454.04a1.11 1.11 0 00.385-.124l.037-.023c.142-.082.256-.182.342-.296.086-.115.15-.252.189-.41l.114-.453a3.122 3.122 0 01.81-1.45l.004-.005c.39-.391.881-.673 1.444-.815l.45-.114c.157-.04.294-.104.407-.19a1.14 1.14 0 00.295-.344h.001c.078-.136.127-.279.145-.425a1.153 1.153 0 00-.04-.456l-.127-.449a3.124 3.124 0 01-.02-1.662 3.115 3.115 0 01.847-1.431l.333-.326c.12-.116.207-.24.26-.37.054-.125.08-.275.08-.446 0-.171-.026-.32-.08-.448a1.14 1.14 0 00-.26-.369l-.333-.325a3.115 3.115 0 01-.846-1.432 3.125 3.125 0 01.02-1.661l.126-.45a1.16 1.16 0 00.04-.456 1.127 1.127 0 00-.123-.387L36 17.56a1.133 1.133 0 00-.294-.343 1.118 1.118 0 00-.408-.19l-.45-.115a3.094 3.094 0 01-1.442-.814l-.005-.005a3.125 3.125 0 01-.81-1.451l-.114-.453a1.134 1.134 0 00-.19-.41 1.14 1.14 0 00-.341-.296l.001-.002a1.12 1.12 0 00-.423-.145 1.133 1.133 0 00-.454.04l-.446.128a3.074 3.074 0 01-1.653.02 3.091 3.091 0 01-1.424-.851v0zM29.438 37.886a.997.997 0 01.395-1.348.986.986 0 011.34.397l2.086 3.832.613-1.697c.14-.39.414-.697.755-.884a1.624 1.624 0 011.144-.161l1.754.397-2.076-3.813a.997.997 0 01.395-1.348.986.986 0 011.341.398l2.436 4.475a1.636 1.636 0 01-.129 1.781 1.62 1.62 0 01-1.668.614l-2.195-.497-.768 2.124c-.11.309-.302.566-.549.754l-.002-.002a1.638 1.638 0 01-1.767.139l-.004-.004a1.637 1.637 0 01-.654-.66l-2.448-4.497h0z" fill="#374148" stroke="#F1F1F1" stroke-width=".6"/></svg><svg fill="none" viewBox="0 0 53 53" id="komfort-icon" xmlns="http://www.w3.org/2000/svg"><circle cx="26.5" cy="26.5" r="26.5" fill="#F1F1F1"/><path d="M35.971 19.773a.995.995 0 01-.992-.998c0-.55.444-.997.992-.997.97 0 1.854.4 2.497 1.046l.002-.002a3.558 3.558 0 011.038 2.513v1.383c0 .979-.398 1.868-1.038 2.513l-.064.058a3.516 3.516 0 01-2.435.986.995.995 0 01-.992-.997c0-.551.444-.998.992-.998.409 0 .78-.158 1.057-.417l.04-.042c.281-.284.457-.674.457-1.103v-1.383c0-.428-.176-.819-.458-1.102v-.004a1.541 1.541 0 00-1.096-.456v0z" fill="#22B0F5" stroke="#F1F1F1" stroke-width=".6"/><path d="M40.17 42.35c0 .551-.444.998-.992.998a.995.995 0 01-.992-.998v-1.713a7.118 7.118 0 00-.94-3.549 7.23 7.23 0 00-2.598-2.63.997.997 0 01-.353-1.36.985.985 0 011.352-.355A9.213 9.213 0 0138.96 36.1a9.11 9.11 0 011.211 4.538v1.713h0zm-25.186 0c0 .551-.445.998-.992.998A.995.995 0 0113 42.35v-1.713a9.144 9.144 0 012.67-6.459 9.041 9.041 0 016.424-2.686h6.428c.548 0 .992.447.992.998 0 .55-.444.997-.991.997h-6.429a7.068 7.068 0 00-5.02 2.1 7.149 7.149 0 00-2.09 5.05v1.713h0zM33.08 21.748a6.628 6.628 0 00-1.902-4.669 6.43 6.43 0 00-4.594-1.928c-1.794 0-3.419.738-4.593 1.928a6.626 6.626 0 00-1.902 4.669c0 1.825.727 3.476 1.902 4.668a6.431 6.431 0 004.593 1.927 6.43 6.43 0 004.594-1.927 6.626 6.626 0 001.902-4.669v.001zm-.5-6.071a8.624 8.624 0 012.484 6.071c0 2.368-.95 4.515-2.484 6.07a8.395 8.395 0 01-5.995 2.52c-2.34 0-4.46-.962-5.997-2.52a8.622 8.622 0 01-2.483-6.07c0-2.368.95-4.515 2.483-6.071a8.396 8.396 0 015.996-2.52c2.341 0 4.461.963 5.996 2.52z" fill="#374148" stroke="#F1F1F1" stroke-width=".6"/><path d="M37.577 15.558a.998.998 0 01-.391 1.352.987.987 0 01-1.345-.394 10.666 10.666 0 00-3.887-4.04 10.472 10.472 0 00-10.705-.023c-1.59.94-2.94 2.304-3.882 3.992a.987.987 0 01-1.348.381.999.999 0 01-.38-1.355 12.662 12.662 0 014.611-4.732A12.437 12.437 0 0126.585 9c2.281 0 4.475.628 6.376 1.762a12.668 12.668 0 014.616 4.795v0zM34.96 31.255a.987.987 0 01-1.399-.074 1 1 0 01.074-1.406c.385-.35.746-.727 1.077-1.13.341-.413.645-.84.907-1.274a.985.985 0 011.356-.335.996.996 0 01.333 1.363 12.733 12.733 0 01-1.07 1.517c-.392.476-.82.924-1.278 1.339v0zM32.174 33.162a.985.985 0 01-1.325-.444.996.996 0 01.442-1.332l.235-.123v-.003l.237-.126a.984.984 0 011.344.378.996.996 0 01-.376 1.352l-.276.156-.001-.003-.28.145h0zM17.198 17.777c.548 0 .992.447.992.997 0 .551-.444.998-.992.998-.428 0-.816.174-1.096.456v.003a1.562 1.562 0 00-.457 1.103v1.383c0 .428.175.819.457 1.102l.04.042c.276.26.648.418 1.056.418.548 0 .992.447.992.997 0 .551-.444.998-.992.998-.94 0-1.798-.376-2.435-.986l-.063-.059a3.557 3.557 0 01-1.039-2.513v-1.382c0-.98.398-1.869 1.039-2.513l.002.002a3.52 3.52 0 012.496-1.047v.001z" fill="#22B0F5" stroke="#F1F1F1" stroke-width=".6"/><path d="M27.837 41.988c0 .734-.593 1.33-1.323 1.33s-1.322-.596-1.322-1.33v-4.092c0-.735.592-1.33 1.322-1.33.73 0 1.323.595 1.323 1.33v4.092zM25.785 36.156a.995.995 0 01-.992-.997c0-.55.444-.997.992-.997h1.561c.548 0 .992.446.992.997 0 .55-.444.997-.992.997h-1.561z" fill="#374148" stroke="#F1F1F1" stroke-width=".6"/></svg><svg fill="none" viewBox="0 0 215 24" id="logo" xmlns="http://www.w3.org/2000/svg"><path fill-rule="evenodd" clip-rule="evenodd" d="M16.517 6.914V23.22H8.26V6.914h8.258zM0 .8h8.259v6.114H0V.8z" fill="#003C5F"/><path fill-rule="evenodd" clip-rule="evenodd" d="M203.965 23.995c-3.487 0-7.433-.675-10.428-2.486l2.751-6.048c.663.374 1.297.7 2.009.987 2.097.846 4.798 1.414 7.073 1.114.486-.063 1.339-.214 1.339-.836 0-.742-1.301-.981-1.867-1.127-2.114-.545-4.134-.833-6.245-1.574-2.891-1.014-4.615-3.157-4.615-6.18 0-1.457.424-2.803 1.272-4.006C197.365.846 201.516 0 205.017 0c1.597 0 3.171.168 4.721.504 1.596.346 2.937.837 4.357 1.618l-2.57 6.014c-2.095-1.027-4.192-1.775-6.574-1.775-.951 0-1.653.107-2.108.32-.818.384-.764 1.17.116 1.502 2.191.829 4.944.987 7.358 1.818 2.911 1.003 4.683 3.095 4.683 6.15a6.741 6.741 0 01-1.273 3.99c-2.123 2.982-6.258 3.855-9.762 3.855zM24.635.805h25.14V6.91h-8.38v16.28h-8.38V6.91h-8.38V.805zm128.489 23.19c-3.487 0-7.433-.675-10.427-2.486l2.75-6.048c.663.374 1.298.7 2.01.987 2.097.846 4.798 1.414 7.072 1.114.486-.063 1.34-.214 1.34-.836 0-.742-1.302-.981-1.867-1.127-2.115-.545-4.134-.833-6.246-1.574-2.89-1.014-4.614-3.157-4.614-6.18 0-1.457.423-2.803 1.271-4.006C146.525.846 150.675 0 154.177 0c1.598 0 3.171.168 4.721.504 1.596.346 2.936.837 4.357 1.618l-2.571 6.014c-2.094-1.027-4.192-1.775-6.573-1.775-.951 0-1.654.107-2.109.32-.818.384-.763 1.17.117 1.502 2.191.829 4.944.987 7.358 1.818 2.91 1.003 4.683 3.095 4.683 6.15a6.748 6.748 0 01-1.273 3.99c-2.123 2.982-6.258 3.854-9.763 3.854zM184.36.805l-4.954 8.544-4.955-8.544h-9.217l9.982 16.28v6.105h8.379v-6.105l9.982-16.28h-9.217zM92.533 14.033h4.641l-2.32-8.266-2.32 8.266zm6.355 6.105H90.82l-.857 3.052h-8.379L87.868.805h13.972l6.285 22.385h-8.38l-.857-3.052zM129.42.805h8.379V23.19h-11.003l-5.966-10.055V23.19h-8.379V.805h9.444l7.524 12.683.001-12.683zM74.012 16.223l3.172 6.967h-8.38l-2.778-6.105h-4.134v6.105h-8.38V.805h16.76c4.607 0 8.378 3.663 8.378 8.14 0 3.173-1.894 5.936-4.638 7.278zM68.176 6.91h-6.284v4.07h6.284c.57 0 1.092-.23 1.474-.602a2 2 0 00.62-1.433 2 2 0 00-.62-1.433 2.116 2.116 0 00-1.474-.602z" fill="#fff"/><path fill-rule="evenodd" clip-rule="evenodd" d="M24.776 6.914V23.22h-8.259V6.914h8.259zM8.259.8h8.258v6.114H8.26V.8z" fill="#0A6397"/><path fill-rule="evenodd" clip-rule="evenodd" d="M33.034 6.914V23.22h-8.259V6.914h8.259zM16.517.8h8.259v6.114h-8.26V.8z" fill="#008DD2"/></svg><svg fill="none" viewBox="0 0 676 193" id="plane-big" xmlns="http://www.w3.org/2000/svg"><path d="M581.865 187.862c1.577 0 3.032-1.334 3.153-2.91v-.485c.121-1.818-1.213-3.273-2.91-3.516l-155.803-12.488c3.395-.728 6.669-1.455 9.942-2.304 17.703-4.365 33.465-11.034 44.862-15.762 6.184-2.546 11.155-4.608 14.065-5.335.848-.243 1.455-.728 1.818-1.334.364-.485.485-1.091.485-1.697 0-.607-.121-1.092-.363-1.698-.364-.606-.97-1.212-1.819-1.455l-5.214-1.576c25.22-9.336 45.71-16.005 60.503-20.491h.97c2.303-.121 4.486-.121 6.426-.242 4.971 0 11.033-.121 17.217-.364 9.821-.485 20.248-1.334 28.857-2.789 1.212-.242 1.94-1.333 1.818-2.546-.121-.727-.606-1.455-1.333-1.697-5.578-2.304-17.339-4.244-29.221-5.214-1.091-.121-2.304-.121-3.395-.242-7.275-2.304-18.793-8.245-13.095-21.582 1.94-4.608 7.882-18.309 14.429-32.98l15.156-33.949c.121-.242.242-.485.242-.849 3.031-6.79 4.971-11.276 4.971-11.276.485-1.09 0-2.425-1.091-2.91-.364-.12-.727-.242-1.091-.12l-28.008 2.06c-5.456.364-10.67 1.82-15.52 4.002-5.456 2.425-10.427 5.82-14.913 9.82-17.702 15.399-31.282 27.645-42.194 37.466-42.922 38.678-45.225 40.739-82.085 40.86-27.28 0-70.808.121-116.276.243-54.319.121-111.547.242-147.8.242h-7.639c-30.069-.242-77.234-.485-94.451 24.007l-13.701 5.093c-4.123 1.576-7.76 5.456-9.7 10.427-1.212 3.274-1.697 7.153-.849 11.033.849 3.88 3.031 7.76 6.911 11.276 7.396 6.79 21.219 12.125 44.862 13.095h135.191c.363 2.183 1.454 4.244 3.031 5.699 1.94 2.061 4.728 3.273 7.759 3.273h9.943c.363 2.304 1.334 4.244 2.91 5.82 1.818 1.819 4.365 3.031 7.153 3.031 2.789 0 5.335-1.091 7.154-3.031 1.576-1.576 2.546-3.516 2.91-5.82h2.667c.364 2.304 1.334 4.244 2.91 5.82 1.819 1.819 4.365 3.031 7.154 3.031 2.788 0 5.335-1.091 7.153-3.031 1.577-1.576 2.547-3.516 2.91-5.82h2.668c.363 2.304 1.333 4.244 2.91 5.82 1.818 1.819 4.365 3.031 7.153 3.031 2.789 0 5.335-1.091 7.154-3.031 1.576-1.576 2.546-3.516 2.91-5.82h2.667c.364 2.304 1.334 4.244 2.91 5.82 1.819 1.819 4.365 3.031 7.154 3.031 2.788 0 5.335-1.091 7.153-3.031 1.576-1.576 2.546-3.516 2.91-5.82h7.518c3.031 0 5.698-1.212 7.759-3.152 1.577-1.576 2.668-3.516 3.032-5.82 3.516.121 11.154.243 20.975 0a18.545 18.545 0 00-.363 3.637v2.183h2.182c.121 0 18.793-.121 42.073-2.91l184.417 14.792c-.364.485-.243.485-.243.485zm79.417.243c-1.212 0-2.182.97-2.182 2.182 0 1.213.97 2.183 2.182 2.183h11.64c1.213 0 2.182-.97 2.182-2.183a2.173 2.173 0 00-2.182-2.182h-11.64zm-46.801 0c-1.213 0-2.183.97-2.183 2.182 0 1.213.97 2.183 2.183 2.183h37.465c1.213 0 2.183-.97 2.183-2.183 0-1.212-.97-2.182-2.183-2.182h-37.465zm-612.299 0c-1.212 0-2.182.97-2.182 2.182 0 1.213.97 2.183 2.182 2.183h602.72c1.213 0 2.183-.97 2.183-2.183 0-1.212-.97-2.182-2.183-2.182H121.975c2.061-.122 3.879-1.092 5.334-2.425 1.577-1.576 2.425-3.638 2.425-5.941 0-2.304-.97-4.487-2.425-5.941-1.576-1.577-3.637-2.425-5.941-2.425-2.303 0-4.486.97-5.941 2.425l-.121.121c-1.455 1.576-2.304 3.516-2.304 5.82 0 2.303.97 4.365 2.425 5.941 1.334 1.333 3.274 2.303 5.335 2.425H2.182zM549.13 38.001h4.243c1.213 0 2.183-.97 2.183-2.183 0-1.212-.97-2.182-2.183-2.182h-1.697l7.396-12.246c.727-1.091 1.576-2.062 2.667-2.668 1.092-.606 2.304-.97 3.638-1.09l17.338-.85c-3.759 8.366-8.487 19.157-13.095 29.585l-16.853 37.829h-29.584c-.243 0-.364 0-.607-.121-.121-.122-.363-.243-.363-.364-.122-.121-.121-.364-.121-.606 0-.122-.001-.364.121-.607l8.366-13.822h4.85c1.212 0 2.182-.97 2.182-2.182 0-1.213-.97-2.183-2.182-2.183h-2.183l15.884-26.31zm35.646-25.584l-19.521.85c-2.061.12-4.001.727-5.577 1.697a11.208 11.208 0 00-4.122 4.122l-36.859 61.109a5.633 5.633 0 00-.728 2.788c0 .97.243 1.94.728 2.668.485.849 1.091 1.576 1.94 2.061.848.485 1.697.727 2.788.727h29.463c-.363 6.912 3.395 11.64 8.003 14.793h-.485l-4.123-.485h-.242l-80.266-2.425c-8.73-.364-14.671 1.212-17.581 3.273-1.455 1.092-2.303 2.425-2.425 3.88-.121 1.455.485 2.91 1.94 4.123 2.425 2.182 7.881 3.88 16.611 4.122 1.091 0 2.546.121 4.486.121 10.912.364 33.707 1.213 56.744 1.092-14.065 4.486-31.524 10.427-51.773 18.065l-13.822-4.365h-.364c-.97 0-1.818.122-2.788.364-.97.243-1.819.606-2.668.97-4.486 2.304-16.247 8.124-33.343 13.459-17.096 5.335-39.526 10.306-65.352 10.912-3.395.121-6.426 2.425-8.73 5.577-.727 1.091-1.455 2.304-1.94 3.638-12.973.242-22.673 0-24.128 0h-.242c-1.213 0-2.183.97-2.183 2.182v.243c0 1.818-.727 3.516-1.94 4.607-1.212 1.213-2.788 1.94-4.607 1.94H216.062c-1.818 0-3.394-.727-4.607-1.94-1.212-1.212-1.94-2.91-1.94-4.85v.121c0-1.212-.97-2.182-2.182-2.182H70.323c-22.43-.849-35.404-5.82-42.072-12.004-3.153-2.91-4.85-5.941-5.578-9.093-.727-3.031-.364-5.941.606-8.609 1.455-3.758 4.123-6.789 7.154-7.881l9.578-3.637h30.07c1.455 0 2.788-.728 3.637-1.819.849-.97 1.334-2.304 1.334-3.759v-4.486c0-.97-.364-1.818-.849-2.425-.606-.727-1.455-1.212-2.546-1.212h-13.7c20.732-12.125 55.409-11.882 79.052-11.761h8.366l-.121.121c-.727 1.213-1.212 2.425-1.455 3.759-.242 1.334-.121 2.789.243 4.122.97 3.395 4.001 6.305 9.214 7.033 23.159 3.273 45.468 6.911 67.171 11.033-1.455 1.819-2.425 4.122-2.425 6.547v15.641c0 2.91 1.213 5.456 3.032 7.275 1.818 1.819 4.486 3.031 7.274 3.031h85.237c1.698 0 3.274.243 4.729.728a15.684 15.684 0 014.244 2.182l3.152 2.304c.97.727 2.304.485 3.031-.485.728-.97.485-2.304-.485-3.031l-3.152-2.304c-1.698-1.212-3.516-2.182-5.456-2.789-1.94-.606-3.88-.97-6.063-.97h-39.648c.97-.97 1.698-1.94 2.425-3.152l12.61-2.182c1.091-.122 1.819-1.092 1.819-2.183v-5.092c7.032 1.818 13.943 3.637 20.976 5.577 1.94 1.334 4.971 2.304 9.214 2.546 7.639.607 25.22.122 44.498-1.455 15.156-1.212 31.282-3.152 44.498-5.698 1.212-.243 1.94-1.334 1.697-2.546-.121-.97-.97-1.577-1.818-1.698-7.76-1.455-21.582-3.031-36.496-4.001l-89.965-34.798h8.972c45.468-.121 88.874-.243 116.276-.243 38.435 0 40.86-2.303 84.873-41.951 11.034-9.942 24.735-22.31 42.073-37.465 4.244-3.76 8.972-6.912 13.943-9.215 4.365-2.061 9.094-3.274 14.065-3.638l24.492-1.818-3.274 8.244zm-178.112 91.178h-6.79c-1.333 0-2.546.607-3.516 1.455a4.93 4.93 0 00-1.455 3.516v13.701c0 1.334.606 2.547 1.455 3.517l.121.121c.849.849 2.062 1.334 3.274 1.334h6.79c1.334 0 2.546-.607 3.516-1.455.849-.849 1.455-2.062 1.455-3.395v-13.701c0-1.334-.606-2.546-1.455-3.516-.849-.97-2.061-1.577-3.395-1.577zm-6.79 4.365h6.79c.121 0 .243 0 .364.122.121.121.121.242.121.363v13.701c0 .121 0 .243-.121.364s-.243.121-.364.121h-6.79c-.121 0-.242 0-.363-.121-.122-.121-.122-.243-.122-.364v-13.701c0-.121.122-.242.122-.363 0 0 .121-.122.363-.122zm-277.05 20.612h-8.002a5.32 5.32 0 00-3.759 1.577 5.316 5.316 0 00-1.576 3.758v15.883a5.32 5.32 0 001.576 3.759 5.32 5.32 0 003.759 1.576h8.002a5.32 5.32 0 003.759-1.576l.121-.121c.849-.97 1.455-2.183 1.455-3.638v-15.883a5.316 5.316 0 00-1.576-3.758 5.32 5.32 0 00-3.759-1.577zm-8.002 4.365h8.002c.243 0 .485.121.728.243.242.121.242.485.242.727v15.883a.93.93 0 01-.242.607l-.121.121c-.243.243-.485.243-.728.243H114.7c-.243 0-.485-.122-.728-.243-.242-.121-.242-.485-.242-.728v-15.883c0-.242.121-.485.242-.727.364-.122.607-.243.849-.243zm424.729-26.189c-.121.242-.364.363-.485.606a4.214 4.214 0 00-.727 2.91c.121.849.363 1.819.97 2.546-24.25.243-48.984-.606-60.503-1.091-1.818-.121-3.273-.121-4.486-.121-7.639-.243-12.125-1.577-13.943-3.153l-.485-.485c0-.121.242-.364.606-.727 2.182-1.576 7.153-2.789 14.792-2.425l64.261 1.94zm35.404 1.697c6.184.485 12.367 1.213 17.581 2.183-5.698.606-11.64.97-17.338 1.212-12.246.606-23.28.364-28.008-.121-2.425-.243-3.759-.849-4.365-1.576-.121-.122-.121-.243-.121-.243 0-.121 0-.121.121-.242.364-.485.97-.849 2.061-1.092 5.214-1.212 17.702-1.212 30.069-.121zm-266.38 32.979c-24.371-6.668-48.62-12.488-73.476-17.459-26.31-5.335-53.106-9.821-81.357-13.822-3.273-.485-5.092-2.062-5.698-4.001-.243-.728-.243-1.455-.121-2.183.121-.727.363-1.455.727-2.061.97-1.576 2.789-2.546 5.335-2.183 30.918 4.729 59.411 10.67 85.964 17.218 24.977 6.304 48.257 13.215 70.202 20.733-.242.364-.606.727-.727.97a8.197 8.197 0 00-.849 2.788zm6.547-6.668c-23.158-8.002-47.65-15.399-73.96-22.067a1018.147 1018.147 0 00-61.958-13.337c27.402 0 59.775-.122 92.269-.243l6.79 2.668h-12.124c-.849 0-1.698.485-2.062 1.333-.485 1.092.122 2.425 1.213 2.789l56.744 21.946c.606.242 1.212.485 1.94.485.606.121 1.333.121 1.94.121h21.46l11.64 4.486c-1.091 0-2.304-.121-3.395-.121-16.611-.606-32.13-.364-39.648 1.455-.242.242-.485.364-.849.485zm40.376 2.546c13.822.485 28.493 1.698 39.769 3.031-9.7 1.455-20.248 2.546-30.312 3.274-19.036 1.576-36.374 1.94-43.891 1.455-4.123-.243-6.548-1.213-7.639-2.304-.364-.364-.485-.606-.485-.849 0-.242 0-.606.243-.848.606-.97 1.939-1.819 3.879-2.304 7.154-1.819 22.189-2.061 38.436-1.455zm-129.371-10.67c2.789.485 5.456 1.092 8.245 1.698l.97.242v25.341h-6.79c-1.698 0-3.153-.728-4.244-1.698-1.091-1.091-1.697-2.546-1.697-4.243v-15.641c0-1.698.727-3.152 1.697-4.244.485-.727 1.091-1.212 1.819-1.455zm13.58 2.668c4.728.97 9.457 1.94 14.186 3.031v21.461h-14.186V129.3zm18.429 4.001c5.214 1.212 10.549 2.425 15.762 3.637v6.184c0 2.91-1.212 5.577-3.031 7.396-1.94 1.94-4.486 3.031-7.396 3.031h-5.213l-.122-20.248zm20.127 4.729c2.668.606 5.335 1.333 8.124 2.061v4.486l-8.366 1.455c.121-.849.242-1.819.242-2.668v-5.334zm11.276-31.888l46.802 18.065h-10.306c-.364 0-.849 0-1.213-.121-.363-.121-.727-.121-1.091-.364l-45.953-17.702 11.761.122zm8.851 72.99h11.276c-.242 1.092-.848 1.94-1.576 2.668a5.773 5.773 0 01-4.122 1.697 5.777 5.777 0 01-4.123-1.697c-.606-.728-1.212-1.576-1.455-2.668zm-68.141 0h11.276c-.242 1.092-.848 1.94-1.576 2.668a5.773 5.773 0 01-4.122 1.697 5.777 5.777 0 01-4.123-1.697c-.606-.728-1.212-1.576-1.455-2.668zm22.795 0h11.155c-.243 1.092-.849 1.94-1.577 2.668a5.773 5.773 0 01-4.122 1.697 5.773 5.773 0 01-4.122-1.697c-.607-.728-1.092-1.576-1.334-2.668zm22.673 0h11.276c-.242 1.092-.849 1.94-1.576 2.668a5.774 5.774 0 01-4.123 1.697 5.773 5.773 0 01-4.122-1.697 5.248 5.248 0 01-1.455-2.668zm193.389-43.891l21.461 6.79c-3.031 1.091-6.668 2.667-11.033 4.486-11.276 4.729-26.917 11.155-44.256 15.52-31.645 7.881-68.383 9.336-77.962 9.578.364-2.304 1.455-4.729 2.789-6.79 1.455-2.182 3.274-3.637 5.214-3.758 26.189-.607 49.105-5.578 66.565-11.034 17.459-5.456 29.463-11.397 34.07-13.822.606-.243 1.091-.485 1.697-.606.485-.243.97-.364 1.455-.364zm-192.419 14.913c0-.121.121-.121.121-.242-.121 0-.121.121-.121.242zM51.651 115.478h18.915v3.758c0 .364-.121.728-.364.97-.121.121-.242.243-.364.243H46.801c1.455-1.819 3.032-3.516 4.85-4.971zm66.807 67.049c-.727-.727-1.212-1.697-1.212-2.91 0-1.091.364-2.061 1.091-2.788l.121-.122c.728-.727 1.698-1.212 2.91-1.212 1.092 0 2.183.485 2.91 1.212.728.728 1.213 1.698 1.213 2.91 0 1.092-.485 2.183-1.213 2.91-.727.728-1.697 1.213-2.91 1.213-1.212 0-2.182-.485-2.91-1.213z" fill="#374148"/><path d="M484.261 137.787l29.221 2.062c1.091.121 1.94 1.091 1.819 2.182l-2.304 32.373c-.121 1.091-1.091 1.94-2.182 1.819l-32.373-2.304c-1.092-.121-1.94-1.091-1.819-2.182l1.576-22.431a106.776 106.776 0 005.092-2.183l-1.576 22.431h.121l22.916 1.698 1.455.121h.121c1.092 0 1.94-.849 2.062-1.94l1.576-21.946.121-1.455c.121-1.091-.727-2.061-1.819-2.182l-1.455-.122-12.246-.848h.122c.97-.243.97-1.577 0-1.94l-10.428-3.153zm6.305 8.366l15.156 1.092c.485 0 .728.363.728.848l-1.213 16.369c0 .727-.97 1.091-1.455.485l-14.064-17.46c-.243-.485.121-1.334.848-1.334zm-2.303 5.578l11.639 14.428c.607.728 0 1.698-.848 1.698l-12.61-.849c-.606 0-.97-.485-.97-1.091l.97-13.58c0-.606.485-.97 1.091-.97.121 0 .485.121.728.364zm40.981 2.303l13.701 1.092c2.546.242 4.486 2.425 4.244 4.971l-1.092 13.701c-.242 2.546-2.424 4.486-4.971 4.243l-13.701-1.091c-2.546-.242-4.486-2.425-4.243-4.971l1.091-13.701c.242-2.425 2.182-4.244 4.607-4.244.122-.121.243-.121.364 0zm-24.128 14.308h-.121.121z" fill="url(#kpaint0_linear)"/><defs><linearGradient id="kpaint0_linear" x1="547.211" y1="157.961" x2="476.6" y2="157.961" gradientUnits="userSpaceOnUse"><stop stop-color="#008DD2"/><stop offset="1" stop-color="#003C5F"/></linearGradient></defs></svg><svg fill="none" viewBox="0 0 339 104" id="plane-litl" xmlns="http://www.w3.org/2000/svg"><path d="M30.812 96.895H109.4c0 2.703 2.254 5.105 4.959 5.105h60.556c2.704 0 4.958-2.252 4.958-4.955v-.15s30.354 1.051 49.437-3.754c10.819-2.853 14.576-4.204 25.695-8.558 41.172-16.367 66.567-22.373 66.567-22.373s-16.83-2.552-11.571-14.865C312.706 40.74 329.986 2 329.986 2l-16.078 1.201c-6.311.45-12.021 3.454-16.829 7.658C247.342 54.102 252 56.054 224.952 56.054c-34.41 0-113.298.3-151.465.3-16.529 0-47.633-1.501-57.851 13.514L7.37 73.02C.008 75.724-5.4 95.393 30.812 96.895z" stroke="#074F79" stroke-width="3" stroke-miterlimit="10" stroke-linejoin="round"/><path d="M13.232 70.768h17.43c.902 0 1.653-.9 1.653-1.952v-2.552c0-.45-.3-.901-.751-.901h-11.42M146.966 86.084l9.166-1.651v-7.958l-9.166-1.502" stroke="#074F79" stroke-width="3" stroke-miterlimit="10" stroke-linejoin="round"/><path d="M122.924 89.988h16.98c5.109 0 9.166-4.054 9.166-9.159s-4.057-9.16-9.166-9.16h-16.98c-3.306 0-5.86 2.704-5.86 5.857v6.606c-.151 3.153 2.554 5.856 5.86 5.856z" stroke="#074F79" stroke-width="3" stroke-miterlimit="10" stroke-linejoin="round"/><path d="M126.831 71.52H137.5v18.318h-10.669V71.52zM209.325 80.378l-62.509-24.174" stroke="#074F79" stroke-width="3" stroke-miterlimit="10" stroke-linejoin="round"/><path d="M260.866 75.424c-1.202-.3-2.404-.15-3.456.15-7.213 2.853-33.058 15.015-61.007 14.864-3.306 0-5.71 3.304-5.56 6.457 0 0 23.141.3 44.628-5.556 14.726-3.903 26.447-9.159 33.208-12.012.902-.45.902-1.802-.15-2.102l-7.663-1.801z" stroke="#074F79" stroke-width="3" stroke-miterlimit="10"/><path d="M178.221 93.141l-1.803-1.351c-1.804-1.352-3.607-1.952-5.861-1.952h-47.333" stroke="#074F79" stroke-width="3" stroke-miterlimit="10" stroke-linecap="round" stroke-linejoin="round"/><path d="M189.941 73.021H177.62c-.601 0-1.202-.15-1.804-.3l-32.607-12.613h13.524M169.956 83.532c-29.752-8.259-58.903-14.114-91.21-18.619-6.762-.9-5.109-9.31.601-8.558h-.15c35.612 5.555 65.515 13.363 92.412 22.672M322.323 62.21l-12.922-1.501-46.131-1.352c-12.622-.45-14.125 5.856-.751 6.307 5.409.15 26.296 1.05 44.477.6 10.068-.3 13.374-1.351 13.374-1.351l1.953-2.703z" stroke="#074F79" stroke-width="3" stroke-miterlimit="10" stroke-linejoin="round"/><path d="M225.404 80.828c-10.969-2.102-43.727-4.354-53.344-2.102-4.508 1.051-5.109 5.556 2.555 6.156 7.814.601 33.809-.6 50.789-4.054z" stroke="#074F79" stroke-width="3" stroke-miterlimit="10" stroke-linejoin="round"/><path clip-rule="evenodd" d="M337.049 64.312c-6.311-2.703-27.949-4.204-34.11-2.853-2.855.6-3.456 3.754 1.503 4.355 4.808.6 21.487.45 32.607-1.502z" stroke="#074F79" stroke-width="3" stroke-miterlimit="10" stroke-linejoin="round"/><path d="M61.016 75.574h-4.508c-1.052 0-1.803.75-1.803 1.802v9.159c0 1.05.75 1.802 1.803 1.802h4.508c1.052 0 1.803-.751 1.803-1.802v-9.16c0-1.05-.752-1.801-1.803-1.801zM326.981 8.757l-18.482 41.291h-17.731c-1.503 0-2.404-1.651-1.653-2.853l21.187-35.135c1.052-1.652 2.705-2.703 4.658-2.703l12.021-.6z" stroke="#074F79" stroke-width="3" stroke-miterlimit="10" stroke-linejoin="round"/><path d="M294.975 38.636h2.855M305.193 21.07h2.855" stroke="#074F79" stroke-width="3" stroke-miterlimit="10" stroke-linecap="round" stroke-linejoin="round"/></svg><svg fill="none" viewBox="0 0 53 53" id="safety-icon" xmlns="http://www.w3.org/2000/svg"><circle cx="26.5" cy="26.5" r="26.5" fill="#F1F1F1"/><path d="M13.796 13.102l12.876-3.075a.98.98 0 01.468.003l12.897 3.08a.996.996 0 01.763.97v13.63c0 2.947-1.625 5.745-3.887 8.104-2.885 3.01-6.854 5.342-9.7 6.306a.98.98 0 01-.627 0c-2.845-.964-6.814-3.296-9.7-6.306C14.626 33.454 13 30.657 13 27.71V14.08c0-.483.342-.886.796-.978h0zm13.104-1.08l-11.916 2.846V27.71c0 2.367 1.392 4.704 3.329 6.725 2.554 2.666 6.012 4.748 8.587 5.69 2.575-.942 6.033-3.024 8.587-5.69 1.938-2.02 3.33-4.358 3.33-6.725V14.868L26.9 12.022h0z" fill="#374148" stroke="#F1F1F1" stroke-width=".6"/><path d="M17.951 16.616l8.72-2.083a.98.98 0 01.47.003l8.741 2.088a.996.996 0 01.763.97v9.587c0 2.091-1.14 4.063-2.725 5.717-1.993 2.08-4.737 3.69-6.706 4.358a.98.98 0 01-.627 0c-1.97-.667-4.714-2.279-6.706-4.358-1.586-1.655-2.726-3.625-2.726-5.717v-9.587c0-.483.342-.887.796-.978h0zm8.95-.088l-7.762 1.854v8.799c0 1.511.906 3.022 2.167 4.338 1.663 1.734 3.899 3.097 5.594 3.739 1.696-.642 3.932-2.005 5.594-3.74 1.262-1.315 2.168-2.826 2.168-4.337v-8.8L26.9 16.529z" fill="#22B0F5" stroke="#F1F1F1" stroke-width=".6"/></svg><svg fill="none" viewBox="0 0 756 317" id="ship2" xmlns="http://www.w3.org/2000/svg"><path d="M390.401 108.686h161.631" stroke="#074F79" stroke-width="4" stroke-miterlimit="10" stroke-linecap="round" stroke-linejoin="round"/><path d="M609.62 71.39l-32.919 38.576c-1.522 1.761-2.403 3.842-2.723 6.163l-1.122 9.044H218.117c-.72 0-1.281-.56-1.281-1.281v-11.765c0-.08 0-.24-.08-.24L201.858 72.83a5.187 5.187 0 014.886-7.043h12.495c.721 0 1.281-.56 1.281-1.28V34.094c0-.72.561-1.28 1.282-1.28h10.973c.721 0 1.281-.561 1.281-1.281V25.53c0-.72.561-1.28 1.282-1.28h6.007c.721 0 1.281.56 1.281 1.28v6.003c0 .72.561 1.28 1.282 1.28h40.848c.721 0 1.282.56 1.282 1.28v30.414c0 .72.56 1.28 1.281 1.28h8.971c.64 0 1.201.48 1.201 1.12.561 6.003 5.687 10.725 11.854 10.725H533.29c6.167 0 11.293-4.722 11.854-10.724.08-.64.56-1.12 1.201-1.12h60.551c2.724-.08 4.406 3.2 2.724 5.602z" stroke="#074F79" stroke-width="4" stroke-miterlimit="10" stroke-linejoin="round"/><path d="M594.013 75.392a2.733 2.733 0 01-2.735 2.732 2.733 2.733 0 01-2.735-2.732 2.733 2.733 0 012.735-2.732 2.733 2.733 0 012.735 2.732z" stroke="#074F79" stroke-width="3.5"/><path d="M403.616 58.985h-35.482c-.961 0-1.682.8-1.682 1.68v12.326c0 .96.801 1.68 1.682 1.68h35.482c.962 0 1.682-.8 1.682-1.68V60.665c.08-.88-.72-1.68-1.682-1.68zm-42.129-18.328h-35.482c-.961 0-1.682.8-1.682 1.68v12.326c0 .96.801 1.68 1.682 1.68h35.482c.961 0 1.682-.8 1.682-1.68V42.338c0-.96-.721-1.681-1.682-1.681zm42.129 0h-35.482c-.961 0-1.682.8-1.682 1.68v12.326c0 .96.801 1.68 1.682 1.68h35.482c.962 0 1.682-.8 1.682-1.68V42.338c.08-.96-.72-1.681-1.682-1.681zm-42.129 18.328h-35.482c-.961 0-1.682.8-1.682 1.68v12.326c0 .96.801 1.68 1.682 1.68h35.482c.961 0 1.682-.8 1.682-1.68V60.665c0-.88-.721-1.68-1.682-1.68zm158.507-18.328h-17.221c-.961 0-1.681.8-1.681 1.68v30.654c0 .96.8 1.68 1.681 1.68h17.221c.961 0 1.682-.8 1.682-1.68V42.337c0-.96-.721-1.68-1.682-1.68zm-24.509 0h-17.22c-.962 0-1.682.8-1.682 1.68v30.654c0 .96.801 1.68 1.682 1.68h17.22c.961 0 1.682-.8 1.682-1.68V42.337c0-.96-.721-1.68-1.682-1.68zm-24.749 0h-17.221c-.961 0-1.682.8-1.682 1.68v30.654c0 .96.801 1.68 1.682 1.68h17.221c.961 0 1.682-.8 1.682-1.68V42.337c.08-.96-.721-1.68-1.682-1.68zm-24.75 0h-35.481c-.962 0-1.682.8-1.682 1.68v12.326c0 .96.8 1.68 1.682 1.68h35.481c.962 0 1.682-.8 1.682-1.68V42.338c0-.96-.801-1.681-1.682-1.681zm0 18.328h-35.481c-.962 0-1.682.8-1.682 1.68v12.326c0 .96.8 1.68 1.682 1.68h35.481c.962 0 1.682-.8 1.682-1.68V60.665c0-.88-.801-1.68-1.682-1.68z" fill="#074F79"/><path d="M280.111 38.496h-6.488v6.483h6.488v-6.483zM270.019 38.496h-6.488v6.483h6.488v-6.483zM260.007 38.656h-6.487v6.483h6.487v-6.483zM249.995 38.656h-6.488v6.483h6.488v-6.483z" stroke="#074F79" stroke-width="4" stroke-miterlimit="10" stroke-linejoin="round"/><path d="M214.834 65.707h56.867M599.768 148.303l-4.245-2.561a14.142 14.142 0 00-14.337-.16l-.881.48c-4.565 2.561-10.092 2.481-14.577-.32-4.325-2.642-9.691-2.882-14.177-.481l-2.082 1.121c-4.486 2.401-9.852 2.161-14.177-.48l-.16-.08a14 14 0 00-14.257-.4M753.893 169.105l-4.245-2.561a14.147 14.147 0 00-14.337-.16l-.881.48c-4.565 2.561-10.092 2.481-14.577-.32-4.325-2.641-9.691-2.881-14.177-.48l-2.082 1.12c-4.486 2.401-9.852 2.161-14.177-.48l-.16-.08a14.005 14.005 0 00-14.257-.4M80.893 126.105l-4.245-2.561a14.147 14.147 0 00-14.337-.16l-.88.48c-4.566 2.561-10.093 2.481-14.578-.32-4.325-2.641-9.691-2.881-14.177-.48l-2.082 1.12c-4.486 2.401-9.852 2.161-14.177-.48l-.16-.08a14.004 14.004 0 00-14.257-.4M650.782 225.507l-2.463-1.691c-2.557-1.743-5.717-1.796-8.32-.105l-.511.317c-2.65 1.691-5.857 1.638-8.46-.212-2.509-1.743-5.624-1.902-8.226-.317l-1.209.74c-2.603 1.585-5.717 1.427-8.227-.317l-.093-.053c-2.51-1.796-5.67-1.902-8.273-.264M326.159 153.36l-4.245-2.561a14.147 14.147 0 00-14.337-.16l-.881.48c-4.565 2.561-10.092 2.481-14.577-.32-4.325-2.641-9.691-2.881-14.177-.48l-2.082 1.12c-4.485 2.401-9.852 2.161-14.177-.48l-.16-.08a14.005 14.005 0 00-14.257-.4M466.893 314.105l-4.245-2.561a14.147 14.147 0 00-14.337-.16l-.881.48c-4.565 2.561-10.092 2.481-14.577-.32-4.325-2.641-9.691-2.881-14.177-.48l-2.082 1.12c-4.486 2.401-9.852 2.161-14.177-.48l-.16-.08a14.005 14.005 0 00-14.257-.4M444.882 188.278l-4.245-2.561a14.145 14.145 0 00-14.336-.16l-.882.48c-4.565 2.561-10.091 2.481-14.577-.32-4.325-2.641-9.691-2.881-14.176-.48l-2.083 1.12c-4.485 2.402-9.852 2.161-14.177-.48l-.16-.08a14.005 14.005 0 00-14.257-.4M506.893 200.105l-4.245-2.561a14.147 14.147 0 00-14.337-.16l-.881.48c-4.565 2.561-10.092 2.481-14.577-.32-4.325-2.641-9.691-2.881-14.177-.48l-2.082 1.12c-4.486 2.401-9.852 2.161-14.177-.48l-.16-.08a14.005 14.005 0 00-14.257-.4M632.782 237.731l-2.463-1.268c-2.557-1.308-5.717-1.347-8.32-.079l-.511.238c-2.65 1.268-5.857 1.228-8.46-.159-2.509-1.308-5.624-1.426-8.226-.238l-1.209.555c-2.603 1.189-5.717 1.07-8.227-.238l-.093-.039c-2.51-1.348-5.67-1.427-8.273-.198M506.618 145.182a14.147 14.147 0 00-14.337-.16l-.881.48c-4.565 2.561-10.092 2.481-14.577-.32-4.325-2.641-9.691-2.881-14.177-.48l-2.082 1.12M572.696 125.093c2.243-.08 4.486-.72 6.488-1.841l.881-.48c4.565-2.561 10.092-2.481 14.577.32 4.325 2.641 9.692 2.881 14.177.48l2.082-1.12M253.52 2v30.413" stroke="#074F79" stroke-width="4" stroke-miterlimit="10" stroke-linecap="round" stroke-linejoin="round"/><path d="M668.81 123.252l-39.006-.16c-2.643 0-5.286-.56-7.849-1.441-3.684-1.28-7.769-.96-11.293.881l-2.083 1.12M208.28 124.415a14.147 14.147 0 00-14.337-.16l-.881.481c-4.565 2.561-10.092 2.481-14.577-.321-4.325-2.641-9.692-2.881-14.177-.48l-2.082 1.121c-4.486 2.401-9.852 2.161-14.177-.48l-.16-.081a14.291 14.291 0 00-11.934-1.44c-2.243.72-4.566.96-6.888.96H99.832M187.215 141.783l-.881.48c-4.565 2.561-10.092 2.481-14.577-.32-4.325-2.641-9.692-2.881-14.177-.48-1.361.72-2.883 1.121-4.405 1.121h-26.912" stroke="#074F79" stroke-width="4" stroke-miterlimit="10" stroke-linecap="round" stroke-linejoin="round"/></svg><svg fill="none" viewBox="0 0 53 53" id="speed-icon" xmlns="http://www.w3.org/2000/svg"><circle cx="26.5" cy="26.5" r="26.5" fill="#0A6397"/><path d="M26.686 12.81c4.055 0 7.727 1.654 10.385 4.327a14.765 14.765 0 014.301 10.442c0 4.078-1.644 7.771-4.301 10.443a14.6 14.6 0 01-10.385 4.326 14.599 14.599 0 01-10.384-4.325A14.765 14.765 0 0112 27.58c0-4.078 1.644-7.77 4.302-10.443a14.6 14.6 0 0110.384-4.326v0zm8.982 5.737a12.628 12.628 0 00-8.982-3.741 12.63 12.63 0 00-8.982 3.74 12.77 12.77 0 00-3.72 9.033c0 3.528 1.421 6.722 3.72 9.033a12.628 12.628 0 008.982 3.741c3.508 0 6.684-1.43 8.982-3.741a12.77 12.77 0 003.72-9.033c0-3.527-1.421-6.72-3.72-9.032zM24.11 9.995a.995.995 0 01-.991-.997c0-.551.444-.998.991-.998h5.152c.548 0 .992.447.992.998 0 .55-.445.997-.992.997H24.11z" fill="#fff" stroke="#0A6397" stroke-width=".6"/><path d="M27.678 11.169c0 .55-.444.997-.992.997a.995.995 0 01-.991-.997V8.997c0-.55.444-.997.991-.997.548 0 .992.447.992.997v2.172zM25.694 20.793c0-.551.445-.998.992-.998.548 0 .992.447.992.998v5.789h3.88c.548 0 .992.446.992.997 0 .55-.444.997-.992.997h-4.872a.995.995 0 01-.992-.997v-6.787h0z" fill="#fff" stroke="#0A6397" stroke-width=".6"/><path d="M35.368 30.218a.99.99 0 111.898.57 11.102 11.102 0 01-3.993 5.711 10.992 10.992 0 01-6.587 2.194 10.987 10.987 0 01-7.814-3.255c-2-2.011-3.238-4.79-3.238-7.859 0-2.363.747-4.6 2.05-6.44a11.044 11.044 0 015.382-4.055.987.987 0 011.255.615.995.995 0 01-.612 1.262 9.062 9.062 0 00-4.414 3.331 9.146 9.146 0 00-1.677 5.288 9.117 9.117 0 002.656 6.448 9.015 9.015 0 006.412 2.67 9.025 9.025 0 005.41-1.796 9.1 9.1 0 003.272-4.683v0zM26.686 18.46a.995.995 0 01-.991-.997c0-.551.444-.998.991-.998 3.043 0 5.801 1.24 7.801 3.245a11.111 11.111 0 013.247 7.84.991.991 0 01-.988.994.99.99 0 01-.988-.994 9.113 9.113 0 00-2.666-6.43 9.017 9.017 0 00-6.406-2.66z" fill="#fff" stroke="#0A6397" stroke-width=".6"/></svg></svg>